<?xml version="1.0" standalone="no"?>
<!DOCTYPE svg PUBLIC "-//W3C//DTD SVG 1.1//EN" "http://www.w3.org/Graphics/SVG/1.1/DTD/svg11.dtd" >
<svg xmlns="http://www.w3.org/2000/svg">
<metadata>Generated by IcoMoon</metadata>
<defs>
<font id="iacons" horiz-adv-x="1024">
<font-face units-per-em="1024" ascent="960" descent="-64" />
<missing-glyph horiz-adv-x="1024" />
<glyph unicode="&#x20;" horiz-adv-x="512" d="" />
<glyph unicode="&#xe900;" glyph-name="ia-logo" horiz-adv-x="1351" d="M1348.148 866.211c-3.839 3.839-9.873 4.114-13.712 0.274v0c-16.728-15.906-33.731-31.537-52.105-44.426-9.050-6.582-18.648-12.615-28.246-17.277s-19.471-8.501-29.069-9.873c-9.598-1.371-18.648-0.823-27.149 2.468-8.501 3.017-16.454 8.776-23.859 15.631-14.809 14.26-27.424 33.457-40.313 52.653-13.163 19.471-26.601 40.039-45.249 58.412-9.324 9.050-20.294 17.825-32.908 24.407s-27.149 10.695-41.41 11.792c-7.13 0.548-14.26 0.274-21.39-0.274-7.13-0.823-14.26-2.194-21.116-4.114-13.712-4.114-26.601-10.421-38.119-18.648-22.762-16.454-39.216-38.942-51.008-62.252-11.792-23.584-18.922-48.54-23.036-73.77s-4.936-50.46-3.291-75.689c1.645-24.956 5.485-49.637 11.518-73.77 5.485-21.939 9.324-43.329 10.695-64.446 0.548-10.421 0.548-20.568-0.548-29.892s-3.291-18.1-6.856-24.956c-3.291-6.856-7.953-11.792-13.438-15.631s-12.889-6.307-21.665-7.679c-17.277-2.742-38.119-0.274-58.687 4.936-5.21 1.371-10.421 2.742-15.357 4.388-4.114 1.097-7.953 2.742-12.066 3.839-1.371 3.017-3.017 6.033-4.936 9.050 7.679 7.679 14.809 16.454 21.39 26.601 25.504 38.667 41.136 92.966 41.136 153.573 0 117.099-59.235 211.711-132.456 211.711-0.548 0-0.823 0-1.371 0-72.124-1.645-130.537-95.983-130.537-212.259 0-75.964 24.956-142.603 62.8-180.174-1.92-2.742-3.565-5.759-4.936-9.050-4.114-1.097-7.953-2.742-12.066-3.839-5.21-1.645-10.421-3.017-15.357-4.388-20.568-5.21-41.41-7.679-58.687-4.936-8.501 1.371-15.906 3.839-21.665 7.679-5.485 3.839-10.147 8.776-13.438 15.631-3.565 6.856-5.759 15.631-6.856 24.956s-1.371 19.471-0.548 29.892c1.371 20.842 5.21 42.507 10.695 64.446 6.033 24.133 9.873 48.814 11.518 73.77s0.823 50.46-3.291 75.689c-4.114 25.23-11.518 50.185-23.036 73.77-11.792 23.31-28.246 45.798-51.008 62.252-11.244 8.227-24.407 14.535-38.119 18.648-6.856 1.92-13.986 3.291-21.116 4.114s-14.26 0.823-21.39 0.274c-14.26-1.097-28.795-5.21-41.41-11.792s-23.584-15.083-32.908-24.407c-18.648-18.374-32.086-38.942-45.249-58.412-12.889-19.471-25.504-38.393-40.313-52.653-7.404-7.13-15.357-12.615-23.859-15.631-8.501-3.291-17.551-3.839-27.149-2.468s-19.471 5.21-29.069 9.873c-9.598 4.936-18.922 10.695-28.246 17.277-18.1 13.438-35.102 28.795-51.831 44.975v0c-3.565 3.565-9.324 3.565-13.163 0.274-4.114-3.565-4.388-9.598-0.823-13.712 15.631-17.825 32.36-34.828 51.282-50.46 9.324-7.679 19.471-15.083 30.44-21.39s23.036-11.792 36.473-14.535c13.438-3.017 28.521-2.742 42.232 1.645 13.986 4.388 25.778 12.066 35.651 20.842s18.374 18.1 26.052 27.698c7.679 9.598 14.809 19.197 21.665 28.521 13.986 18.648 27.424 37.022 42.781 51.008 7.679 6.856 15.631 12.615 23.859 16.454s17.003 6.033 26.052 6.307c4.388 0.274 9.050 0 13.712-0.823s9.050-1.92 13.438-3.291c8.776-3.017 16.728-7.679 24.133-13.438 14.809-11.518 26.875-28.246 35.377-46.894s13.986-39.49 16.454-60.606c2.742-21.116 3.017-42.781 1.097-64.72-1.92-21.665-5.759-43.329-11.518-64.446-6.307-23.584-11.518-47.991-13.438-73.77-1.097-12.889-1.097-26.327 0.548-40.039 0.548-3.565 0.823-6.856 1.645-10.421l1.097-5.21 1.371-5.21c0.823-3.565 2.194-7.13 3.291-10.695 1.371-3.565 2.742-7.13 4.662-10.695 6.582-14.26 17.825-27.698 31.537-37.022 13.712-9.598 29.069-14.26 43.604-16.728s28.521-2.194 41.958-1.097c2.468 0.274 4.662 0.548 7.13 0.823-13.986-11.518-28.521-22.213-43.604-31.537-16.18-10.147-32.908-18.922-49.088-24.133-8.227-2.742-16.18-4.388-23.859-5.21-7.404-0.548-14.26 0-20.294 1.92s-11.244 4.936-16.18 9.324c-4.936 4.388-9.598 10.421-13.438 17.551-7.953 13.986-13.438 31.811-17.277 50.185-3.839 19.745-7.404 40.039-11.244 60.058-3.565 20.294-7.13 40.587-11.244 61.429-4.388 20.842-8.776 41.684-17.003 63.349-2.194 5.485-4.388 10.969-7.404 16.728s-6.307 11.518-11.244 17.277c-4.936 5.759-11.518 12.066-20.842 15.906-4.388 1.92-9.598 3.017-14.535 3.565s-9.598 0-13.712-0.823c-8.501-1.645-15.357-4.662-21.39-7.953s-10.969-7.13-15.631-10.695c-9.324-7.679-17.277-15.631-24.681-23.859-3.565-4.114-7.13-8.227-10.695-12.341l-9.873-11.792c-6.582-7.953-12.889-15.631-19.471-23.31s-13.163-15.083-20.019-22.213c-6.582-7.13-13.438-13.986-20.568-20.019-3.565-3.017-7.13-5.485-10.421-7.679s-6.856-3.839-9.598-4.662c-1.371-0.548-2.468-0.548-3.565-0.823-1.097 0-1.645 0-2.468 0-1.371 0.274-3.291 1.371-5.485 3.839-4.388 4.662-8.501 13.163-11.518 21.939s-5.21 18.374-7.13 28.246c-3.839 19.471-6.033 39.764-7.953 60.058v0c-0.548 4.936-4.388 8.776-9.598 8.776-5.485 0-9.873-4.114-9.873-9.598-0.274-20.842 0-41.958 1.92-63.074 1.097-10.695 2.742-21.39 5.21-32.36 1.371-5.485 3.017-10.969 5.21-16.728 2.194-5.485 5.21-11.518 9.324-17.003 4.388-5.485 10.695-11.244 18.922-14.535s17.277-3.017 24.407-1.371c7.404 1.645 13.438 4.388 18.922 7.13 5.485 3.017 10.421 6.307 15.083 9.598 18.374 13.438 33.457 28.795 47.991 43.878 7.404 7.679 14.26 15.357 21.39 22.762l10.421 11.518c3.291 3.565 6.582 7.13 10.147 10.695 6.856 6.856 13.712 13.163 20.568 18.1 3.291 2.468 6.856 4.662 9.873 6.307s6.033 2.468 7.679 2.742c1.645 0 1.645 0 1.92-0.274s1.645-1.097 3.291-3.291c3.291-4.388 6.856-12.066 9.598-20.568 5.759-17.003 9.324-36.748 12.615-56.493 6.856-39.764 12.066-80.9 19.471-122.31 4.114-21.939 10.147-44.426 21.939-66.64 6.033-10.969 13.712-21.939 23.859-31.263 10.147-9.598 23.036-17.277 36.748-21.39 13.712-4.388 27.698-5.21 40.861-4.388 13.163 1.097 25.23 3.839 36.748 7.404 22.762 7.404 42.781 18.1 61.703 29.892 14.26 8.776 27.698 18.648 40.587 28.521-8.776-12.889-17.825-25.504-27.424-37.845-23.036-29.892-47.717-58.687-74.867-82.545-13.438-11.792-27.698-22.487-42.232-29.618-7.13-3.565-14.535-6.582-21.39-8.227s-13.163-2.194-19.197-1.371c-5.759 0.823-11.244 2.742-16.728 6.033s-10.695 7.953-15.631 13.986c-1.097 1.371-2.468 3.017-3.565 4.662l-1.92 2.742-2.194 2.742c-2.742 3.839-5.485 7.679-8.227 11.518-5.485 7.679-10.695 15.357-15.906 23.31-10.421 15.631-19.745 31.811-29.343 48.54-4.936 8.501-9.598 17.003-15.357 26.327-3.017 4.662-6.033 9.324-10.147 14.26s-9.050 10.147-15.357 14.26c-6.307 4.388-13.712 7.404-20.568 9.050s-13.438 2.194-19.471 2.194c-3.017 0-5.759-0.274-8.776-0.274-3.017-0.274-6.033-0.548-9.050-0.823-6.033-0.823-12.341-2.468-18.1-4.662-11.792-4.388-23.036-11.244-31.811-20.019s-15.631-19.197-20.568-29.618c-9.598-21.39-12.066-43.878-11.518-65.268 0.823-21.39 4.662-41.958 10.695-61.703s13.986-38.393 23.31-56.493c9.324-17.825 20.019-34.828 31.811-51.008 2.742-3.839 8.227-5.21 12.615-2.742 4.662 2.742 6.307 8.501 3.565 13.163v0c-9.324 16.728-18.1 33.731-25.23 51.282-7.404 17.551-13.163 35.377-17.277 53.476-3.839 18.1-6.307 36.199-5.759 54.025 0.548 17.551 4.114 34.828 11.518 48.814 7.13 13.986 18.1 23.584 31.263 27.698 3.291 1.097 6.856 1.645 10.421 1.92 1.92 0.274 3.565 0.274 5.485 0.274s4.114 0 5.759-0.274 7.13-0.823 9.598-1.92c2.468-0.823 4.114-1.92 5.759-3.291 3.291-2.468 7.404-8.501 11.518-16.18 4.114-7.404 8.501-16.454 12.889-24.956 4.388-8.776 8.776-17.825 13.712-26.601 4.662-8.776 9.873-17.825 15.083-26.327 5.21-8.776 10.695-17.277 16.18-25.778 2.742-4.114 5.485-8.501 8.501-12.615l2.194-3.017 1.097-1.645 1.371-1.645c1.645-2.468 3.565-4.662 5.485-6.856 7.679-9.050 16.728-17.825 27.698-24.956s24.133-12.341 37.845-14.26c13.438-1.92 26.875-0.823 38.942 1.92s23.31 7.13 33.457 12.341c20.568 10.147 37.845 23.31 53.75 36.748 31.811 27.424 58.138 58.412 82.819 90.224 8.227 10.695 16.18 21.39 23.859 32.36-2.742-27.424-6.856-54.847-13.163-81.174-6.307-26.875-15.357-53.202-27.972-75.141-6.307-10.969-13.712-20.842-22.213-28.246-4.114-3.839-8.501-7.13-13.163-9.598-4.662-2.742-9.873-5.21-15.083-6.856-10.421-3.565-21.116-4.662-33.731-3.565-12.615 0.823-26.327 3.839-42.507 6.033-8.227 1.097-17.003 1.645-26.601 1.097s-20.019-2.742-29.343-7.13c-9.324-4.388-17.551-10.421-24.133-17.003-6.582-6.307-12.341-13.712-17.003-21.939s-8.227-17.277-10.147-26.875c-1.92-9.598-1.645-19.197 0-28.521 3.291-18.648 12.615-34.828 24.133-47.443 5.759-6.307 12.066-11.792 18.648-16.728s13.712-9.050 20.842-12.615c7.13-3.839 14.535-6.582 21.939-9.324s15.083-4.662 22.487-6.307c4.662-1.097 9.324 1.371 11.244 5.759 1.92 4.936-0.274 10.695-5.21 12.615h-0.274c-13.163 5.485-25.778 11.518-36.748 19.471-11.244 7.679-20.842 17.003-28.246 26.875-7.404 10.147-11.792 21.39-12.615 32.086-0.548 10.695 2.194 20.842 8.501 29.343 3.017 4.388 6.856 8.501 11.244 12.066s8.501 6.033 12.889 7.404c4.388 1.371 8.776 2.194 13.712 1.92 5.21 0 10.969-0.823 17.551-2.194 12.889-2.468 27.972-6.856 44.701-9.050 8.501-1.097 17.551-1.645 26.601-1.097s18.374 1.92 27.424 4.388c9.050 2.468 17.551 6.033 25.778 10.421 8.227 4.662 15.906 10.147 22.762 15.906 13.712 12.066 24.681 26.052 33.183 40.587 17.277 29.069 27.424 59.509 35.102 89.95 6.033 23.584 9.873 47.443 12.889 71.027 3.017-23.584 6.856-47.443 12.889-71.027 7.679-30.44 17.825-60.881 35.102-89.95 8.776-14.535 19.471-28.521 33.183-40.587 6.856-6.033 14.535-11.518 22.762-15.906s16.728-7.953 25.778-10.421c9.050-2.468 18.374-4.114 27.424-4.388 9.050-0.548 18.1 0 26.601 1.097 17.003 2.194 31.811 6.582 44.701 9.050 6.582 1.371 12.341 2.194 17.551 2.194s9.598-0.548 13.712-1.92c4.388-1.371 8.501-3.839 12.889-7.404s8.227-7.679 11.244-12.066c6.307-8.776 9.050-18.648 8.501-29.343s-5.21-21.939-12.615-32.086c-7.404-10.147-17.003-19.471-28.246-26.875-11.244-7.679-23.859-13.986-36.748-19.471h-0.274c-4.388-1.645-6.856-6.582-5.759-11.244 1.097-5.21 6.307-8.501 11.792-7.404 7.679 1.645 15.083 3.565 22.487 6.307 7.404 2.468 14.809 5.485 21.939 9.324 7.13 3.565 13.986 7.953 20.842 12.615 6.582 4.936 13.163 10.421 18.648 16.728 11.244 12.615 20.842 28.795 24.133 47.443 1.645 9.324 1.645 19.197 0 28.521-1.645 9.598-5.21 18.648-10.147 26.875-4.662 8.227-10.695 15.631-17.003 21.939-6.582 6.582-14.809 12.615-24.133 17.003s-19.745 6.582-29.343 7.13c-9.598 0.548-18.648 0-26.601-1.097-16.18-2.194-30.166-5.21-42.507-6.033-12.615-1.097-23.31 0-33.731 3.565-5.21 1.645-10.421 4.114-15.083 6.856s-9.050 5.759-13.163 9.598c-8.227 7.679-15.631 17.277-22.213 28.246-12.889 21.939-21.665 48.266-27.972 75.141-6.307 26.327-10.421 53.476-13.163 81.174 7.679-10.969 15.631-21.665 23.859-32.36 24.681-31.811 51.008-62.8 82.819-90.224 15.906-13.712 33.457-26.601 53.75-36.748 10.147-5.21 21.39-9.598 33.457-12.341s25.504-3.839 38.942-1.92c13.438 1.92 26.601 7.13 37.845 14.26s20.294 15.906 27.698 24.956c1.92 2.194 3.839 4.662 5.485 6.856l1.371 1.645 1.097 1.645 2.194 3.017c3.017 4.114 5.759 8.227 8.501 12.615 5.485 8.501 10.969 17.003 16.18 25.778s10.147 17.551 15.083 26.327c4.662 8.776 9.324 17.825 13.712 26.601s8.501 17.551 12.889 24.956c4.114 7.679 8.227 13.438 11.518 16.18 1.645 1.371 3.291 2.194 5.759 3.291 2.468 0.823 5.759 1.645 9.598 1.92 1.92 0.274 3.839 0.274 5.759 0.274s3.565 0 5.485-0.274 7.13-1.097 10.421-1.92c13.163-3.839 24.133-13.712 31.263-27.698 7.404-13.986 10.969-30.989 11.518-48.814s-1.645-35.925-5.759-54.025c-4.114-18.1-9.873-35.925-17.277-53.476-7.13-17.551-15.906-34.554-25.23-51.282v0c-2.468-4.388-1.371-9.873 2.742-12.615 4.388-3.291 10.421-2.194 13.712 2.194 11.792 16.18 22.213 33.183 31.811 51.008 9.324 17.825 17.277 36.748 23.31 56.493s9.873 40.313 10.695 61.703c0.548 21.39-1.92 43.604-11.518 65.268-4.936 10.695-11.518 20.842-20.568 29.618-8.776 8.776-20.019 15.906-31.811 20.019-6.033 2.194-12.066 3.565-18.1 4.662-3.017 0.548-6.033 0.823-9.050 0.823s-5.759 0.274-8.776 0.274c-6.033 0-12.615-0.274-19.471-2.194-6.856-1.645-14.26-4.662-20.568-9.050s-11.244-9.598-15.357-14.26c-4.114-4.936-7.404-9.873-10.147-14.26-5.759-9.324-10.421-17.825-15.357-26.327-9.598-16.728-19.197-32.908-29.343-48.54-5.21-7.953-10.421-15.631-15.906-23.31-2.742-3.839-5.485-7.679-8.227-11.518l-2.194-2.742-1.92-2.742c-1.097-1.645-2.468-3.017-3.565-4.662-4.936-5.759-10.147-10.695-15.631-13.986s-10.969-5.21-16.728-6.033c-5.759-0.823-12.341-0.274-19.197 1.371s-13.986 4.388-21.39 8.227c-14.535 7.404-28.795 17.825-42.232 29.618-27.149 23.859-51.831 52.379-74.867 82.545-9.324 12.341-18.374 24.956-27.424 37.845 12.889-10.147 26.327-19.745 40.587-28.521 18.922-11.792 38.942-22.487 61.703-29.892 11.518-3.565 23.584-6.307 36.748-7.404 12.889-0.823 27.149 0 40.861 4.388s26.601 12.066 36.748 21.39c10.147 9.324 18.1 20.294 23.859 31.263 11.792 22.213 17.825 44.701 21.939 66.64 7.679 41.41 12.615 82.545 19.471 122.31 3.291 19.745 7.13 39.49 12.615 56.493 2.742 8.501 6.307 16.18 9.598 20.568 1.645 2.194 2.742 3.017 3.291 3.291 0.274 0.274 0.274 0.548 1.92 0.274 1.645 0 4.388-1.097 7.679-2.742 3.017-1.645 6.582-3.839 9.873-6.307 6.856-5.21 13.986-11.518 20.568-18.1 3.291-3.565 6.582-6.856 10.147-10.695l10.421-11.518c7.13-7.679 13.986-15.357 21.39-22.762 14.535-15.083 29.618-30.44 47.991-43.878 4.662-3.291 9.598-6.582 15.083-9.598s11.518-5.759 18.922-7.13c7.13-1.645 16.18-1.92 24.407 1.371 8.227 3.017 14.809 8.776 18.922 14.535 4.388 5.759 7.13 11.518 9.324 17.003 2.194 5.759 3.839 11.244 5.21 16.728 2.742 10.969 4.114 21.665 5.21 32.36 2.194 21.39 2.468 42.232 1.92 63.074 0 4.936-3.839 9.050-8.776 9.598-5.485 0.548-10.147-3.291-10.695-8.776v0c-1.92-20.294-4.114-40.587-7.953-60.058-1.92-9.873-4.114-19.197-7.13-28.246-3.017-8.776-6.856-17.277-11.518-21.939-2.194-2.468-4.114-3.291-5.485-3.839-0.823-0.274-1.371-0.274-2.468 0-1.097 0-2.194 0.274-3.565 0.823-2.742 0.823-6.033 2.468-9.598 4.662s-6.856 4.936-10.421 7.679c-7.13 6.033-13.986 12.889-20.568 20.019-6.856 7.13-13.438 14.535-20.019 22.213s-13.163 15.631-19.471 23.31l-9.873 11.792c-3.291 4.114-6.856 8.227-10.695 12.341-7.404 8.227-15.357 16.18-24.681 23.859-4.662 3.839-9.873 7.404-15.631 10.695-6.033 3.291-12.615 6.582-21.39 7.953-4.388 0.823-9.050 1.097-13.712 0.823-4.936-0.548-9.873-1.645-14.535-3.565-9.050-3.839-15.906-10.147-20.842-15.906s-8.501-11.792-11.244-17.277c-3.017-5.759-5.21-11.244-7.404-16.728-7.953-21.939-12.615-42.781-17.003-63.349-4.114-20.568-7.679-41.136-11.244-61.429s-7.13-40.313-11.244-60.058c-3.565-18.374-9.050-36.199-17.277-50.185-4.114-7.13-8.501-12.889-13.438-17.551-4.936-4.388-10.421-7.404-16.18-9.324-6.033-1.92-12.889-2.468-20.294-1.92s-15.631 2.468-23.859 5.21c-16.454 5.485-33.183 13.986-49.088 24.133-15.083 9.324-29.618 20.294-43.604 31.537 2.468-0.274 4.662-0.548 7.13-0.823 13.438-1.097 27.424-1.097 41.958 1.097 14.535 2.468 29.892 7.404 43.604 16.728s24.956 22.762 31.537 37.022c1.92 3.565 3.017 7.13 4.662 10.695 1.097 3.565 2.468 7.13 3.291 10.695l1.371 5.21 1.097 5.21c0.823 3.565 1.097 6.856 1.645 10.421 1.645 13.986 1.645 27.149 0.548 40.039-2.194 25.778-7.404 50.46-13.438 73.77-5.759 21.116-9.598 42.781-11.518 64.446s-1.371 43.329 1.097 64.72c2.742 21.116 7.953 41.958 16.454 60.606s20.294 35.377 35.377 46.894c7.404 5.759 15.631 10.421 24.133 13.438 4.388 1.371 8.776 2.468 13.438 3.291s9.324 1.097 13.712 0.823c9.050-0.274 17.551-2.468 26.052-6.307 8.227-3.839 16.454-9.598 23.859-16.454 15.357-13.986 28.795-32.086 42.781-51.008 6.856-9.324 13.986-18.922 21.665-28.521s16.18-18.922 26.052-27.698c9.873-8.501 21.939-16.454 35.651-20.842s28.795-4.388 42.232-1.645c13.438 3.017 25.504 8.501 36.473 14.535 10.969 6.307 21.116 13.438 30.44 21.39 18.922 15.631 35.651 32.634 51.282 50.46 4.662 3.839 4.662 9.598 1.097 13.438zM560.266-64.548v8.227c1.371 0.548 4.114 1.097 7.404 1.92 4.936 1.097 8.501 2.468 10.969 3.839 1.371 2.468 1.92 5.485 1.92 9.873v13.438l0.274 25.778v6.033c0.548 15.083 0.823 22.762 0.823 23.036l-0.274 15.083 0.274 6.033-0.548 12.889-0.274 4.936c0 0.823-0.274 1.92-0.823 3.565-3.017 1.371-8.227 2.468-15.083 2.742-1.645 0-3.017 0.274-3.839 0.274l-0.274 9.873 32.36-1.371c4.114-0.274 6.582-0.274 7.404-0.274 4.388 0 11.518 0.274 21.39 0.823 5.485 0.274 9.050 0.548 10.421 0.548 0-1.371 0-2.742 0-3.565 0-1.371 0-3.017-0.274-4.936-3.017-1.097-6.582-2.194-10.421-3.017s-7.13-1.92-9.598-3.017c-0.548-1.92-0.548-4.662-0.548-8.501 0-3.291 0-5.759 0.274-7.953-0.274-12.889-0.274-22.487-0.274-29.343v-29.892l-0.548-15.083 0.548-22.762v-3.839c0-0.548 0.274-1.371 0.548-2.468 4.662-1.097 8.776-1.645 12.615-1.92 0.548 0 3.017-0.274 6.856-0.823 0.274-2.194 0.548-4.114 0.548-5.759 0-0.823 0-2.194 0-3.839-1.097 0-1.645 0-2.194 0-2.468-0.274-3.839-0.274-4.114-0.274-0.548 0-1.645 0-3.017 0.274-1.097 0.274-6.033 0.548-15.083 1.645l-20.019 0.274c-4.114 0-9.873-0.274-17.551-1.097-4.936-0.823-8.227-1.097-9.873-1.371zM640.069-64.274l0.274 7.679c1.371 0.548 3.839 1.097 7.679 1.645 5.759 1.097 9.324 2.194 10.695 3.017s2.742 3.017 4.662 6.582l22.762 59.784 26.875 70.479c2.468 0 4.936 0 7.13 0h5.21l1.097-1.92 19.745-46.62c4.388-9.873 8.501-19.471 12.066-28.795s6.582-17.003 9.050-22.762c1.371-3.565 3.565-8.776 6.307-15.906 1.371-3.839 3.565-8.776 6.307-14.535 1.645-3.291 2.742-4.936 3.291-5.485 1.371-1.097 3.565-1.92 6.582-2.194s6.307-1.371 9.873-2.742c0.274-2.468 0.548-4.388 0.548-5.485 0-0.548 0-1.371 0-2.468-5.485 0-11.792 0.274-18.374 0.823-6.856 0.548-12.889 0.823-18.1 0.823-6.033 0-10.147 0-12.889-0.274l-19.197-1.097-5.485-0.274c0 2.742 0 5.21 0.274 7.679l12.615 2.742c3.839 1.097 6.033 1.645 6.582 2.194 0.823 0.823 1.097 1.645 1.097 2.742s-0.274 1.92-0.548 3.017l-4.388 10.969-8.776 22.213h-43.329c-1.645-3.565-4.936-12.615-9.873-26.601-1.371-4.114-2.194-6.856-2.194-8.227 0-1.92 0.548-3.291 1.645-4.114 1.645-1.371 4.936-2.468 9.873-3.017 0.548-0.274 3.291-0.548 7.953-1.371 0-2.742 0-4.662 0-5.759 0-0.823 0-1.645-0.274-2.468-4.662 0-15.906 0.548-33.457 1.92l-4.662-0.823c-5.485-0.823-10.969-1.371-15.906-1.371h-2.742zM693.27-0.651c17.551-0.274 27.972-0.274 31.263-0.274h2.742c-2.194 6.856-5.21 14.535-8.776 23.584s-6.582 15.631-8.776 20.568l-16.454-43.878z" />
<glyph unicode="&#xe901;" glyph-name="caret-left" horiz-adv-x="922" d="M696.135 762.602v-111.345l-343.595-301.957 343.595-301.957v-111.345l-470.053 413.301z" />
<glyph unicode="&#xe902;" glyph-name="responsive" d="M200.841 202.728h629.976c10.837 0 19.651 8.814 19.651 19.651v436.071c0 10.837-8.814 19.651-19.651 19.651h-629.976c-10.837 0-19.651-8.814-19.651-19.651v-436.071c0-10.837 8.814-19.651 19.651-19.651zM827.349 294.913h-623.185v307.475h623.185v-307.475zM204.164 225.847v55.195h623.185v-55.195h-623.185zM827.349 655.126v-38.868h-623.185v38.868h623.185zM272.941 325.545h85.249c3.757 0 6.936 3.034 6.936 6.936v85.249c0 3.757-3.034 6.936-6.936 6.936h-85.249c-3.757 0-6.936-3.034-6.936-6.936v-85.249c0.144-3.757 3.179-6.936 6.936-6.936zM279.877 410.938h71.523v-71.523h-71.523v71.523zM491.699 424.665h-85.249c-3.757 0-6.936-3.034-6.936-6.936v-85.249c0-3.757 3.034-6.936 6.936-6.936h85.249c3.757 0 6.936 3.034 6.936 6.936v85.249c0 3.901-3.034 6.936-6.936 6.936zM484.764 339.416h-71.523v71.523h71.523v-71.523zM625.208 424.665h-85.249c-3.757 0-6.936-3.034-6.936-6.936v-85.249c0-3.757 3.034-6.936 6.936-6.936h85.249c3.757 0 6.936 3.034 6.936 6.936v85.249c0 3.901-3.179 6.936-6.936 6.936zM618.272 339.416h-71.523v71.523h71.523v-71.523zM758.572 424.665h-85.249c-3.757 0-6.936-3.034-6.936-6.936v-85.249c0-3.757 3.034-6.936 6.936-6.936h85.249c3.757 0 6.936 3.034 6.936 6.936v85.249c0 3.901-3.034 6.936-6.936 6.936zM751.637 339.416h-71.523v71.523h71.523v-71.523zM308.775 467.723c0-3.757 3.034-6.936 6.936-6.936h224.248c3.757 0 6.936 3.034 6.936 6.936s-3.034 6.936-6.936 6.936h-224.248c-3.901 0-6.936-3.179-6.936-6.936zM272.941 496.187h205.609c3.757 0 6.936 3.034 6.936 6.936s-3.034 6.936-6.936 6.936h-205.609c-3.757 0-6.936-3.034-6.936-6.936s3.179-6.936 6.936-6.936zM272.941 531.587h228.872c3.757 0 6.936 3.034 6.936 6.936s-3.034 6.936-6.936 6.936h-228.872c-3.757 0-6.936-3.034-6.936-6.936s3.179-6.936 6.936-6.936zM539.814 496.187c3.757 0 6.936 3.034 6.936 6.936s-3.034 6.936-6.936 6.936h-33.088c-3.757 0-6.936-3.034-6.936-6.936s3.034-6.936 6.936-6.936h33.088zM567.556 496.187h9.97c3.757 0 6.936 3.034 6.936 6.936s-3.034 6.936-6.936 6.936h-9.97c-3.757 0-6.936-3.034-6.936-6.936s3.034-6.936 6.936-6.936zM758.572 510.058h-149.258c-3.757 0-6.936-3.034-6.936-6.936s3.034-6.936 6.936-6.936h149.258c3.757 0 6.936 3.034 6.936 6.936s-3.034 6.936-6.936 6.936zM566.689 460.787h138.855c3.757 0 6.936 3.034 6.936 6.936s-3.034 6.936-6.936 6.936h-138.855c-3.757 0-6.936-3.034-6.936-6.936s3.034-6.936 6.936-6.936zM630.698 531.587h127.874c3.757 0 6.936 3.034 6.936 6.936s-3.034 6.936-6.936 6.936h-127.874c-3.757 0-6.936-3.034-6.936-6.936s3.179-6.936 6.936-6.936zM526.088 531.587h80.336c3.757 0 6.936 3.034 6.936 6.936s-3.034 6.936-6.936 6.936h-80.336c-3.757 0-6.936-3.034-6.936-6.936s3.179-6.936 6.936-6.936zM213.267 706.131l10.692-1.589-1.589-10.692c-0.578-3.757 2.023-7.224 5.78-7.802 0.289 0 0.722-0.144 1.011-0.144 3.323 0 6.358 2.456 6.791 5.924l1.589 10.692 10.692-1.589c0.289 0 0.722-0.144 1.011-0.144 3.323 0 6.358 2.456 6.791 5.924 0.578 3.757-2.023 7.224-5.78 7.802l-10.692 1.589 1.589 10.692c0.578 3.757-2.023 7.224-5.78 7.802s-7.224-2.023-7.802-5.78l-1.589-10.692-10.692 1.589c-3.757 0.578-7.224-2.023-7.802-5.78s2.023-7.369 5.78-7.802zM904.218 378.862l-12.571-2.745-2.745 12.571c-0.867 3.757-4.479 6.069-8.236 5.202s-6.069-4.479-5.202-8.236l2.745-12.571-12.571-2.745c-3.757-0.867-6.069-4.479-5.202-8.236 0.722-3.179 3.612-5.491 6.791-5.491 0.433 0 1.011 0 1.445 0.144l12.571 2.745 2.745-12.571c0.722-3.179 3.612-5.491 6.791-5.491 0.433 0 1.011 0 1.445 0.144 3.757 0.867 6.069 4.479 5.202 8.236l-2.745 12.571 12.571 2.745c3.757 0.867 6.069 4.479 5.202 8.236-0.867 3.901-4.479 6.213-8.236 5.491zM824.17 709.743l5.491-2.601-2.601-5.491c-1.589-3.468-0.144-7.513 3.323-9.247 1.011-0.433 2.023-0.722 3.034-0.722 2.601 0 5.057 1.445 6.213 3.901l2.601 5.491 5.491-2.601c1.011-0.433 2.023-0.722 3.034-0.722 2.601 0 5.057 1.445 6.213 3.901 1.589 3.468 0.144 7.513-3.323 9.247l-5.491 2.601 2.601 5.491c1.589 3.468 0.144 7.513-3.323 9.247-3.468 1.589-7.513 0.144-9.247-3.323l-2.601-5.491-5.491 2.601c-3.468 1.589-7.513 0.144-9.247-3.323-1.589-3.179-0.144-7.369 3.323-8.958zM139.866 566.265c-3.468-1.445-5.057-5.635-3.612-9.103l1.878-4.335-4.335-1.878c-3.468-1.445-5.057-5.635-3.612-9.103 1.156-2.601 3.612-4.19 6.358-4.19 0.867 0 1.878 0.144 2.745 0.578l4.335 1.878 1.878-4.335c1.156-2.601 3.612-4.19 6.358-4.19 0.867 0 1.878 0.144 2.745 0.578 3.468 1.445 5.057 5.635 3.612 9.103l-1.878 4.335 4.335 1.878c3.468 1.445 5.057 5.635 3.612 9.103s-5.635 5.057-9.103 3.612l-4.335-1.878-1.878 4.335c-1.589 3.612-5.635 5.202-9.103 3.612zM893.092 620.015c1.011 0 1.878 0.144 2.89 0.578l32.221 14.593c3.468 1.589 5.057 5.635 3.468 9.103s-5.635 5.057-9.103 3.468l-32.221-14.593c-3.468-1.589-5.057-5.635-3.468-9.103 1.011-2.601 3.612-4.046 6.213-4.046zM929.504 632.441l-32.221-14.738c-3.468-1.589-5.057-5.635-3.468-9.103 1.156-2.601 3.612-4.046 6.358-4.046 1.011 0 1.878 0.144 2.89 0.578l32.221 14.593c3.468 1.589 5.057 5.635 3.468 9.103-1.734 3.612-5.78 5.202-9.247 3.612zM154.026 355.165c2.023 0 4.19 1.011 5.491 2.745 1.734 2.312 1.878 5.346 0.433 7.658 0.578-0.144 1.156-0.289 1.734-0.289 2.167 0 4.19 1.011 5.491 2.745 2.312 3.034 1.734 7.369-1.3 9.681l-21.385 16.038c-3.034 2.312-7.369 1.734-9.681-1.3-1.734-2.312-1.878-5.346-0.433-7.658-2.601 0.722-5.491-0.289-7.224-2.601-2.312-3.034-1.734-7.369 1.3-9.681l21.24-16.038c1.3-0.867 2.89-1.3 4.335-1.3zM106.634 602.387c20.662 0 37.423 16.761 37.423 37.423s-16.761 37.423-37.423 37.423-37.423-16.761-37.423-37.423 16.761-37.423 37.423-37.423zM106.634 663.507c13.004 0 23.696-10.548 23.696-23.696s-10.548-23.696-23.696-23.696-23.696 10.548-23.696 23.696 10.692 23.696 23.696 23.696zM897.138 496.187c20.951 0 37.856 17.050 37.856 37.856s-17.050 37.856-37.856 37.856-37.856-17.050-37.856-37.856 17.050-37.856 37.856-37.856zM897.138 558.174c13.293 0 24.13-10.837 24.13-24.13s-10.837-24.13-24.13-24.13-24.13 10.837-24.13 24.13 10.837 24.13 24.13 24.13zM93.629 298.67c-9.247 0-16.761-7.513-16.761-16.761s7.513-16.761 16.761-16.761c9.247 0 16.761 7.513 16.761 16.761s-7.513 16.761-16.761 16.761zM93.629 278.875c-1.589 0-2.89 1.3-2.89 2.89s1.3 2.89 2.89 2.89c1.589 0 2.89-1.3 2.89-2.89s-1.3-2.89-2.89-2.89zM938.029 298.67c-9.247 0-16.761-7.513-16.761-16.761s7.513-16.761 16.761-16.761 16.761 7.513 16.761 16.761-7.513 16.761-16.761 16.761zM938.029 278.875c-1.589 0-2.89 1.3-2.89 2.89s1.3 2.89 2.89 2.89 2.89-1.3 2.89-2.89-1.3-2.89-2.89-2.89zM696.297 646.601h20.084v-20.084h-20.084v20.084zM732.997 646.601h20.084v-20.084h-20.084v20.084zM769.553 646.601h20.084v-20.084h-20.084v20.084zM516.696 179.754h-368.594c-6.358 0-11.559-5.202-11.559-11.559s5.202-11.559 11.559-11.559h368.594c6.358 0 11.559 5.202 11.559 11.559s-5.202 11.559-11.559 11.559zM607.291 179.754h-57.94c-6.358 0-11.559-5.202-11.559-11.559s5.202-11.559 11.559-11.559h57.94c6.358 0 11.559 5.202 11.559 11.559s-5.202 11.559-11.559 11.559zM660.030 179.754h-23.118c-6.358 0-11.559-5.202-11.559-11.559s5.202-11.559 11.559-11.559h23.118c6.358 0 11.559 5.202 11.559 11.559s-5.202 11.559-11.559 11.559zM883.556 179.754h-191.594c-6.358 0-11.559-5.202-11.559-11.559s5.202-11.559 11.559-11.559h191.594c6.358 0 11.559 5.202 11.559 11.559s-5.202 11.559-11.559 11.559z" />
<glyph unicode="&#xe903;" glyph-name="mobile-friendly" d="M670.289 759.881h-316.722c-10.403 0-18.928-8.525-18.928-18.928v-585.907c0-10.403 8.525-18.928 18.928-18.928h316.722c10.403 0 18.928 8.525 18.928 18.928v585.907c0 10.403-8.38 18.928-18.928 18.928zM661.764 647.035h-299.672v36.556h299.672v-36.556zM362.092 630.419h299.672v-418.009h-299.672v418.009zM661.764 732.428v-32.366h-299.672v32.366h299.672zM362.092 163.572v32.366h299.672v-32.366h-299.672zM485.775 707.143h52.45c4.624 0 8.236 3.757 8.236 8.236s-3.757 8.236-8.236 8.236h-52.45c-4.624 0-8.236-3.757-8.236-8.236s3.612-8.236 8.236-8.236zM570.446 715.379c0-3.99-3.17-7.224-7.080-7.224s-7.080 3.235-7.080 7.224c0 3.99 3.17 7.224 7.080 7.224s7.080-3.235 7.080-7.224zM592.987 715.379c0-3.99-3.17-7.224-7.080-7.224s-7.080 3.235-7.080 7.224c0 3.99 3.17 7.224 7.080 7.224s7.080-3.235 7.080-7.224zM478.695 439.981v126.573c0 5.346-4.335 9.825-9.825 9.825h-88.139c-5.346 0-9.825-4.335-9.825-9.825v-126.573c0-5.346 4.335-9.825 9.825-9.825h88.139c5.346 0 9.825 4.335 9.825 9.825zM462.223 446.627h-74.846v113.136h74.846v-113.136zM503.258 547.915h35.978c4.624 0 8.236 3.757 8.236 8.236s-3.757 8.236-8.236 8.236h-35.978c-4.624 0-8.236-3.757-8.236-8.236s3.757-8.236 8.236-8.236zM560.187 547.915h83.949c4.624 0 8.236 3.757 8.236 8.236s-3.757 8.236-8.236 8.236h-83.949c-4.624 0-8.236-3.757-8.236-8.236s3.757-8.236 8.236-8.236zM644.136 495.465h-115.014c-4.624 0-8.236-3.757-8.236-8.236s3.757-8.236 8.236-8.236h115.014c4.624 0 8.236 3.757 8.236 8.236s-3.612 8.236-8.236 8.236zM621.162 341.294h-218.18c-4.624 0-8.236-3.757-8.236-8.236s3.757-8.236 8.236-8.236h218.18c4.624 0 8.236 3.757 8.236 8.236s-3.757 8.236-8.236 8.236zM621.162 313.552h-218.18c-4.624 0-8.236-3.757-8.236-8.236s3.757-8.236 8.236-8.236h218.18c4.624 0 8.236 3.757 8.236 8.236s-3.757 8.236-8.236 8.236zM621.162 285.81h-218.18c-4.624 0-8.236-3.757-8.236-8.236s3.757-8.236 8.236-8.236h218.18c4.624 0 8.236 3.757 8.236 8.236s-3.757 8.236-8.236 8.236zM621.162 257.924h-218.18c-4.624 0-8.236-3.757-8.236-8.236s3.757-8.236 8.236-8.236h218.18c4.624 0 8.236 3.757 8.236 8.236s-3.757 8.236-8.236 8.236zM497.768 451.251c0-4.624 3.757-8.236 8.236-8.236h48.115c4.624 0 8.236 3.757 8.236 8.236 0 4.624-3.757 8.236-8.236 8.236h-48.115c-4.479 0-8.236-3.757-8.236-8.236zM644.136 529.998h-26.731c-4.624 0-8.236-3.757-8.236-8.236s3.757-8.236 8.236-8.236h26.731c4.624 0 8.236 3.757 8.236 8.236s-3.612 8.236-8.236 8.236zM542.271 521.762c0-4.624 3.757-8.236 8.236-8.236h44.936c4.624 0 8.236 3.757 8.236 8.236s-3.757 8.236-8.236 8.236h-44.936c-4.479 0-8.236-3.757-8.236-8.236zM503.258 513.526h25.864c4.624 0 8.236 3.757 8.236 8.236s-3.757 8.236-8.236 8.236h-25.864c-4.624 0-8.236-3.757-8.236-8.236s3.757-8.236 8.236-8.236zM503.258 478.993h5.491c4.624 0 8.236 3.757 8.236 8.236s-3.757 8.236-8.236 8.236h-5.491c-4.624 0-8.236-3.757-8.236-8.236s3.757-8.236 8.236-8.236zM567.845 675.644h21.818v-21.962h-21.818v21.962zM595.443 675.644h21.818v-21.962h-21.818v21.962zM622.896 675.644h21.818v-21.962h-21.818v21.962z" />
<glyph unicode="&#xe904;" glyph-name="design" d="M830.817 670.731c-1.3 2.89-3.757 5.057-6.647 6.069l-109.812 39.301c-6.069 2.167-12.715-0.867-14.882-6.936l-146.079-394.891c-0.722-2.023-0.867-4.335-0.433-6.502l19.651-92.618h-281.033c-6.502 0-11.704-5.202-11.704-11.704s5.202-11.704 11.704-11.704h295.048c0 0 0.144 0 0.144 0s0.144 0 0.144 0 0.433 0 0.578 0c0.144 0 0.289 0 0.433 0 2.167 0.144 4.335 1.011 6.213 2.312l87.127 67.477c1.734 1.3 3.034 3.179 3.757 5.202l145.935 395.035c1.3 3.034 1.156 6.213-0.144 8.958zM633.155 253.878l-48.549 17.483-5.635 26.442 73.834-28.609-19.651-15.316zM594.576 223.968l-6.647 31.21 32.077-11.415-25.43-19.795zM666.532 283.787l-86.983 33.666 105.478 285.657 32.944-11.848-92.040-248.956c-2.167-6.069 0.867-12.715 6.936-15.027 1.3-0.433 2.745-0.722 4.046-0.722 4.768 0 9.247 2.89 10.981 7.658l92.040 249.245 32.944-11.848-106.345-287.824zM780.968 593.574l-87.85 31.499 24.13 65.309 87.85-31.499-24.13-65.309zM242.599 215.155h-38.868c-6.502 0-11.704-5.202-11.704-11.704s5.202-11.704 11.704-11.704h38.868c6.502 0 11.704 5.202 11.704 11.704s-5.202 11.704-11.704 11.704zM291.436 281.186c-1.734-1.589-3.901-2.456-6.791-2.456h-19.217v-10.981h94.641v10.981h-20.084c-2.312 0-4.335 0.867-5.924 2.456s-2.456 3.757-2.456 6.358v134.954c0 2.745 0.867 4.913 2.456 6.358 1.734 1.445 4.335 2.167 7.947 2.167 6.213 0 11.993-1.734 17.194-5.057s9.825-8.958 14.016-16.905c4.046-7.947 7.369-18.928 9.97-33.088h10.837l-3.901 66.176h-154.893l-3.901-66.176h10.548c7.224 36.7 20.951 55.051 41.324 55.051 3.612 0 6.358-0.722 8.091-2.167s2.601-3.757 2.601-6.936v-134.087c0-2.89-0.722-5.057-2.456-6.647zM425.378 297.514c0-6.213 1.445-11.993 4.335-17.339s6.791-9.247 11.704-11.993c4.913-2.601 10.692-4.046 17.483-4.046 7.658 0 14.593 1.878 20.662 5.491s10.837 8.669 14.016 15.316c3.323 6.647 5.057 15.46 5.202 26.297h-10.692c-0.578-20.518-6.502-30.776-17.772-30.776-3.901 0-7.080 1.3-9.536 3.901s-3.612 6.213-3.612 10.837v70.078h36.989v12.715h-36.989v45.37h-10.692c-1.734-14.738-5.924-25.864-12.715-33.522s-16.327-12.282-28.465-13.727v-10.837h19.94v-67.766z" />
<glyph unicode="&#xe905;" glyph-name="app-drawer-dots" d="M207.343 833.282c0-48.598-39.396-87.994-87.994-87.994s-87.994 39.396-87.994 87.994c0 48.598 39.396 87.994 87.994 87.994s87.994-39.396 87.994-87.994zM599.922 833.282c0-48.598-39.396-87.994-87.994-87.994s-87.994 39.396-87.994 87.994c0 48.598 39.396 87.994 87.994 87.994s87.994-39.396 87.994-87.994zM992.646 833.282c0-48.598-39.396-87.994-87.994-87.994s-87.994 39.396-87.994 87.994c0 48.598 39.396 87.994 87.994 87.994s87.994-39.396 87.994-87.994zM207.343 448.072c0-48.598-39.396-87.994-87.994-87.994s-87.994 39.396-87.994 87.994c0 48.598 39.396 87.994 87.994 87.994s87.994-39.396 87.994-87.994zM599.922 448.072c0-48.598-39.396-87.994-87.994-87.994s-87.994 39.396-87.994 87.994c0 48.598 39.396 87.994 87.994 87.994s87.994-39.396 87.994-87.994zM992.646 448.072c0-48.598-39.396-87.994-87.994-87.994s-87.994 39.396-87.994 87.994c0 48.598 39.396 87.994 87.994 87.994s87.994-39.396 87.994-87.994zM207.343 62.718c0-48.598-39.396-87.994-87.994-87.994s-87.994 39.396-87.994 87.994c0 48.598 39.396 87.994 87.994 87.994s87.994-39.396 87.994-87.994zM599.922 62.718c0-48.598-39.396-87.994-87.994-87.994s-87.994 39.396-87.994 87.994c0 48.598 39.396 87.994 87.994 87.994s87.994-39.396 87.994-87.994zM992.646 62.718c0-48.598-39.396-87.994-87.994-87.994s-87.994 39.396-87.994 87.994c0 48.598 39.396 87.994 87.994 87.994s87.994-39.396 87.994-87.994z" />
<glyph unicode="&#xe906;" glyph-name="cross" d="M38.657 858.134l63.14 63.14 883.352-883.352-63.14-63.14-883.352 883.352zM38.657 37.915l883.352 883.352 63.14-63.14-883.352-883.352-63.14 63.14z" />
<glyph unicode="&#xe907;" glyph-name="link-left" d="M330.159 934.281l-148.391-85.683c-58.807-33.955-79.036-109.379-45.081-168.042l125.273-217.024c31.643-54.762 99.12-76.146 155.616-51.294l-46.381 80.481c-12.137-1.156-24.274 4.768-30.776 16.038l-125.273 217.024c-8.958 15.46-3.468 35.4 11.993 44.358l148.536 85.683c15.46 8.958 35.4 3.757 44.358-11.704l125.273-217.024c6.502-11.27 5.346-24.852-1.589-34.967l46.381-80.336c49.994 36.556 65.165 105.767 33.666 160.528l-125.417 217.024c-33.955 58.663-109.379 78.891-168.186 44.936zM606.135 483.761l46.381-80.336c12.137 1.011 24.563-4.913 31.065-16.183l125.273-217.024c8.958-15.46 3.612-35.545-11.993-44.503l-148.536-85.683c-15.46-8.958-35.545-3.612-44.503 11.993l-125.273 217.024c-6.358 11.126-5.491 24.708 1.445 34.678l-46.381 80.481c-49.849-36.556-65.020-105.622-33.377-160.384l125.273-217.024c33.955-58.807 109.379-79.036 168.186-45.081l148.536 85.683c58.807 33.955 79.036 109.379 45.081 168.186l-125.273 217.024c-31.643 54.762-99.265 76.146-155.905 51.149zM619.428 261.825c21.673 12.571 29.042 40.168 16.616 61.842l-169.776 294.037c-9.392 16.327-27.309 24.419-44.936 22.251-5.78-0.722-11.559-2.601-17.050-5.78-21.673-12.426-29.042-40.168-16.616-61.842l31.932-55.34 45.225-78.458 15.316-26.442 77.158-133.798c9.392-16.183 27.309-24.419 44.792-22.251 6.069 0.867 11.848 2.745 17.339 5.78z" />
<glyph unicode="&#xe908;" glyph-name="link" d="M597.755 960h-171.51c-67.91 0-123.105-55.195-123.105-122.961v-250.546c0-63.142 47.826-115.447 109.234-122.238v92.907c-10.981 5.057-18.639 16.327-18.639 29.331v250.546c0 17.917 14.593 32.366 32.655 32.366h171.51c17.917 0 32.655-14.449 32.655-32.366v-250.546c0-13.004-7.802-24.274-18.784-29.476v-92.763c61.553 6.647 109.379 58.952 109.379 122.238v250.546c-0.289 67.766-55.629 122.961-123.394 122.961zM611.481 431.889v-92.763c10.981-5.202 18.784-16.472 18.784-29.476v-250.546c0-17.917-14.593-32.655-32.655-32.655h-171.365c-17.917 0-32.655 14.593-32.655 32.655v250.546c0 12.86 7.658 24.13 18.639 29.331v92.907c-61.408-6.647-109.234-58.952-109.234-122.238v-250.546c0-67.91 55.195-123.105 123.105-123.105h171.51c67.91 0 123.105 55.195 123.105 123.105v250.546c0.144 63.287-47.682 115.592-109.234 122.238zM511.928 233.071c24.997 0 45.225 20.229 45.225 45.225v339.551c0 18.784-11.415 34.822-27.742 41.758-5.346 2.312-11.415 3.612-17.628 3.612-24.997 0-45.225-20.229-45.225-45.225v-339.407c0-18.784 11.415-34.822 27.742-41.758 5.491-2.456 11.415-3.757 17.628-3.757z" />
<glyph unicode="&#xe909;" glyph-name="link-right" d="M842.232 848.598l-148.536 85.683c-58.807 33.955-134.231 13.727-168.042-44.936l-125.273-217.024c-31.643-54.762-16.327-123.972 33.377-160.384l46.381 80.481c-7.080 9.97-7.947 23.407-1.445 34.678l125.273 217.024c8.958 15.46 28.898 20.662 44.358 11.704l148.536-85.683c15.46-8.958 20.951-28.898 11.993-44.358l-125.273-217.024c-6.502-11.27-18.928-17.050-31.065-16.183l-46.237-80.192c56.64-24.997 124.261-3.612 155.76 51.149l125.273 217.024c33.955 58.663 13.727 134.087-45.081 168.042zM590.097 384.352l-46.381-80.336c6.936-10.114 8.091-23.696 1.589-34.967l-125.273-217.024c-8.958-15.46-29.042-20.951-44.503-11.993l-148.536 85.683c-15.46 8.958-20.951 29.042-11.993 44.503l125.273 217.024c6.358 11.126 18.639 17.050 30.776 16.038l46.381 80.481c-56.496 24.852-124.117 3.468-155.616-51.294l-125.128-216.735c-33.955-58.807-13.727-134.231 45.081-168.186l148.536-85.683c58.807-33.955 134.231-13.727 168.186 45.081l125.273 217.024c31.499 54.617 16.327 123.828-33.666 160.384zM404.427 261.969c21.673-12.571 49.271-5.057 61.842 16.616l169.776 294.037c9.392 16.327 7.513 35.978-3.179 49.994-3.612 4.624-8.091 8.814-13.438 11.848-21.673 12.426-49.271 5.057-61.842-16.616l-31.932-55.34-45.225-78.458-15.316-26.442-77.158-133.798c-9.392-16.183-7.513-35.833 3.179-49.994 3.468-4.624 7.947-8.814 13.293-11.848z" />
<glyph unicode="&#xe90a;" glyph-name="construct" d="M372.639 858.713c55.773-55.773 76.869-135.676 56.496-211.244l514.095-514.095c42.48-42.48 42.48-111.691 0-154.171-20.662-20.662-47.971-31.932-77.158-31.932-29.042 0-56.496 11.415-77.158 31.932l-513.951 514.095c-75.424-20.373-155.327 0.722-211.1 56.496-64.009 64.009-81.926 162.407-44.503 244.766 2.89 6.213 8.525 10.692 15.316 11.993s13.727-1.011 18.639-5.78l93.918-93.918 53.895 14.449 14.449 53.895-93.918 93.918c-4.913 4.913-7.080 11.848-5.78 18.639s5.635 12.571 11.993 15.316c82.504 37.567 180.757 19.651 244.766-44.358zM818.824 8.967c12.715-12.715 29.476-19.651 47.393-19.651s34.678 6.936 47.393 19.651c26.153 26.153 26.153 68.633 0 94.785l-523.053 523.053c-5.635 5.635-7.658 14.016-5.057 21.529 21.385 63.865 5.057 133.22-42.48 180.757-44.214 44.214-108.656 61.119-168.042 46.237l78.891-78.891c5.346-5.346 7.369-13.004 5.491-20.229l-20.807-77.302c-1.878-7.224-7.658-12.86-14.882-14.882l-77.302-20.662c-7.224-1.878-15.027 0.144-20.229 5.491l-78.891 78.747c-14.882-59.385 2.023-123.828 46.381-168.042 47.682-47.682 116.892-64.009 180.757-42.625 7.513 2.456 15.894 0.578 21.529-5.057l522.909-522.909zM888.179 92.338c16.038-16.038 16.038-42.047 0-57.94s-42.047-16.038-57.94 0c-16.038 16.038-16.038 42.047 0 57.94 15.894 16.038 41.902 16.038 57.94 0zM848.011 52.17c6.213-6.213 16.183-6.213 22.251 0 6.213 6.213 6.213 16.183 0 22.251-6.213 6.213-16.183 6.213-22.251 0-6.213-6.069-6.213-16.038 0-22.251zM416.853 268.327l-269.185-269.040c-13.293-13.293-34.967-13.293-48.26 0l-24.997 24.997c-13.293 13.293-13.293 34.967 0 48.26l269.040 269.185-29.62 29.62-269.185-269.185c-29.765-29.62-29.765-77.88 0-107.645l24.997-24.997c29.62-29.62 78.025-29.62 107.645 0l269.185 269.185-29.62 29.62zM986.866 948.73l-89.15-57.796-25.141-63.865-269.907-269.907 29.765-29.765 269.907 269.907 63.865 25.286 57.796 89.15-37.134 36.989zM389.111 296.069l-251.412-251.412-17.917 17.772 251.412 251.557z" />
<glyph unicode="&#xe90b;" glyph-name="tag" d="M768.686-16.318h-513.373v764.93l256.614 171.365 256.759-171.365v-764.93zM330.448 58.816h363.103v649.627l-181.624 121.083-181.624-121.227v-649.482zM511.928 600.22c-41.613 0-75.424 33.811-75.424 75.424s33.811 75.424 75.424 75.424c41.613 0 75.424-33.811 75.424-75.424 0.144-41.469-33.811-75.424-75.424-75.424zM511.928 697.751c-12.137 0-21.962-9.825-21.962-21.962s9.825-21.962 21.962-21.962 21.962 9.825 21.962 21.962-9.825 21.962-21.962 21.962z" />
<glyph unicode="&#xe90c;" glyph-name="hamburger" d="M0 869.694h1024v-91.029h-1024v91.029zM0 493.587h1024v-91.029h-1024v91.029zM0 117.335h1024v-91.029h-1024v91.029z" />
<glyph unicode="&#xe90d;" glyph-name="spanner" d="M511.928-64c-32.655 0-63.431 12.715-86.549 35.833s-35.833 53.75-35.833 86.549v479.995c-30.632 18.784-56.64 44.358-76.002 74.99-23.552 37.423-36.122 80.625-36.122 124.984 0 48.693 14.738 95.363 42.769 134.954 27.309 38.723 65.165 68.055 109.379 84.527 9.825 3.612 20.807 2.312 29.476-3.612s13.727-15.894 13.727-26.297v-130.041l39.012-22.54 39.157 22.54v130.041c0 10.548 5.202 20.373 13.727 26.297s19.651 7.369 29.476 3.612c44.358-16.472 82.215-45.659 109.523-84.527 28.031-39.59 42.769-86.26 42.769-134.954 0-44.358-12.426-87.705-36.122-124.984-19.362-30.632-45.37-56.207-76.146-74.99v-479.995c0.144-67.477-54.762-122.383-122.238-122.383zM408.762 874.029c-41.469-31.788-67.188-81.781-67.188-135.532 0-65.020 36.122-123.539 94.352-152.581 10.837-5.491 17.772-16.472 17.772-28.609v-498.924c0-15.605 6.069-30.198 17.050-41.18s25.575-17.050 41.18-17.050c32.077 0 58.229 26.153 58.229 58.229v498.779c0 12.137 6.936 23.263 17.772 28.609 58.229 29.042 94.496 87.416 94.496 152.581 0 53.75-25.719 103.744-67.188 135.532v-94.496c0-11.415-6.069-22.107-16.038-27.742l-71.089-41.035c-9.97-5.78-22.107-5.78-32.077 0l-71.234 41.035c-9.97 5.78-16.038 16.327-16.038 27.742v94.641zM511.928 16.77c-26.586 0-48.26 21.673-48.26 48.26s21.673 48.26 48.26 48.26c26.586 0 48.26-21.673 48.26-48.26 0.144-26.586-21.529-48.26-48.26-48.26zM511.928 76.733c-6.358 0-11.704-5.202-11.704-11.704 0-6.358 5.202-11.704 11.704-11.704 6.358 0 11.704 5.202 11.704 11.704s-5.202 11.704-11.704 11.704z" />
<glyph unicode="&#xe90e;" glyph-name="spanner-left" d="M799.174-8.371c-28.32-16.327-61.264-20.662-92.763-12.282s-57.94 28.753-74.268 57.074l-239.998 415.553c-35.978 0.867-71.378 10.114-103.31 27.020-39.157 20.518-71.523 51.727-93.774 90.162-24.274 42.191-34.822 90.017-30.487 138.277 4.335 47.248 22.396 91.462 52.45 127.874 6.647 8.091 16.905 12.426 27.309 11.559s19.795-6.791 25.141-15.894l65.020-112.558h45.081l22.54 39.012-65.020 112.558c-5.202 9.103-5.78 20.229-1.156 29.765 4.479 9.536 13.293 16.183 23.696 17.917 46.526 7.802 93.918 1.3 136.976-18.639 44.069-20.373 80.192-53.461 104.466-95.508 22.251-38.434 33.088-82.215 31.21-126.284-1.445-36.122-11.126-71.378-28.465-103.021l239.998-415.697c33.955-58.229 13.871-133.22-44.647-166.886zM241.009 752.224c-20.084-48.26-17.339-104.466 9.536-150.992 32.51-56.351 93.052-88.861 157.927-84.96 12.137 0.722 23.696-5.491 29.765-15.894l249.39-432.025c7.802-13.438 20.373-23.118 35.4-27.164s30.776-1.878 44.214 5.78c27.742 16.038 37.423 51.727 21.385 79.614l-249.39 432.025c-6.069 10.548-5.635 23.552 1.011 33.666 35.978 54.184 38.001 122.961 5.491 179.312-26.875 46.526-74.268 77.013-125.995 83.804l47.248-81.781c5.78-9.97 5.78-22.107 0-32.077l-41.035-71.089c-5.78-9.97-16.327-16.038-27.742-16.038h-82.070c-11.415 0-21.962 6.069-27.742 16.038l-47.393 81.781zM758.861 61.562c-23.118-13.293-52.594-5.346-66.032 17.628-13.293 23.118-5.346 52.594 17.628 66.032 23.118 13.293 52.594 5.346 66.032-17.628 13.438-23.118 5.491-52.739-17.628-66.032zM728.952 113.434c-5.491-3.179-7.513-10.403-4.19-15.894 3.179-5.491 10.403-7.513 15.894-4.19 5.491 3.179 7.513 10.403 4.19 15.894-3.179 5.491-10.403 7.369-15.894 4.19z" />
<glyph unicode="&#xe90f;" glyph-name="brush" d="M848.011 877.063c-9.681 37.856-33.233 66.032-64.731 77.447-31.354 11.415-67.621 4.913-99.265-17.772-28.465-20.373-51.727-52.161-65.309-89.584-0.578-1.589-1.011-3.179-1.3-4.768 0-0.144-3.757-18.784-9.97-45.514-3.612-15.749-7.369-34.1-11.27-53.606-6.502-32.077-13.727-68.488-22.107-98.253-10.692-38.001-18.495-48.838-20.662-51.294-11.848-5.057-29.042-7.802-47.104-10.692-45.225-7.224-107.212-17.194-129.752-79.18l-46.092-126.573c-0.289-0.578-0.433-1.3-0.578-1.878 0 0 0 0 0-0.144-0.144-0.289-8.814-29.476-29.331-66.899-30.487-55.484-85.683-127.296-175.844-154.46-13.438-4.046-22.829-16.327-23.263-30.343s8.236-26.875 21.529-31.643l422.055-153.593c3.612-1.3 7.369-2.023 11.126-2.023 7.224 0 14.449 2.456 20.229 7.080 3.468 2.745 84.238 67.332 149.981 200.985 12.137 24.563 23.118 50.427 32.799 77.013 0 0 0 0 0 0l46.092 126.573c22.685 61.986-18.495 109.523-48.404 144.056-11.993 13.871-23.407 27.020-29.187 38.579-0.144 3.323 0.867 16.761 17.194 52.594 12.715 28.176 30.487 60.83 46.237 89.584 9.536 17.483 18.495 33.955 25.864 48.404 12.426 24.563 21.529 41.18 21.673 41.324 0.867 1.445 1.445 3.034 2.023 4.479 13.293 36.989 16.038 76.146 7.369 110.101zM708.868 273.962l-306.030 111.402 14.305 39.301 306.030-111.402-14.305-39.301zM314.266 91.471c23.407 15.894 43.925 32.655 61.553 49.127-11.415-21.529-23.263-41.324-35.111-58.807l-26.442 9.681zM548.917 6.078l-172.954 62.998c31.354 47.682 61.408 109.234 85.538 175.122 0 0 0 0.144 0 0.144 0.144 0.433 0.289 0.722 0.289 1.156 0 0.289 0.144 0.433 0.144 0.722 0.144 0.289 0.144 0.722 0.144 1.011s0.144 0.433 0.144 0.722c0 0.289 0 0.578 0.144 0.867 0 0.289 0 0.578 0 0.867s0 0.578 0 0.722c0 0.289 0 0.722 0 1.011s0 0.433 0 0.722c0 0.289 0 0.722-0.144 1.011 0 0.289-0.144 0.433-0.144 0.722s-0.144 0.722-0.144 1.011c0 0.289-0.144 0.578-0.289 0.722-0.144 0.289-0.144 0.578-0.289 0.867s-0.289 0.578-0.289 0.867c-0.144 0.289-0.144 0.433-0.289 0.722s-0.289 0.578-0.433 0.867c-0.144 0.144-0.144 0.433-0.289 0.578-0.144 0.289-0.433 0.578-0.578 0.867-0.144 0.144-0.289 0.433-0.433 0.578-0.144 0.289-0.433 0.578-0.578 0.722s-0.289 0.433-0.433 0.578c-0.144 0.289-0.433 0.433-0.578 0.578-0.144 0.289-0.433 0.433-0.722 0.578-0.144 0.144-0.433 0.289-0.578 0.433-0.289 0.289-0.578 0.433-0.867 0.722-0.144 0.144-0.433 0.289-0.578 0.433-0.289 0.144-0.578 0.433-1.011 0.578 0 0-0.144 0-0.144 0.144-0.144 0.144-0.289 0.144-0.578 0.289s-0.578 0.289-0.867 0.433c-0.289 0.144-0.578 0.289-1.011 0.433-0.144 0-0.289 0.144-0.578 0.289 0 0-0.144 0-0.144 0-0.433 0.144-0.722 0.289-1.156 0.289-0.144 0-0.433 0.144-0.578 0.144-0.433 0.144-0.722 0.144-1.156 0.289-0.289 0-0.433 0.144-0.722 0.144s-0.578 0-1.011 0.144c-0.289 0-0.578 0-0.867 0s-0.578 0-0.867 0c-0.289 0-0.722 0-1.011 0s-0.433 0-0.722 0c-0.289 0-0.722 0-1.011-0.144-0.289 0-0.433-0.144-0.722-0.144s-0.722-0.144-1.011-0.289c-0.289 0-0.433-0.144-0.722-0.289s-0.578-0.144-0.867-0.289c-0.289-0.144-0.578-0.289-0.867-0.289-0.289-0.144-0.433-0.144-0.722-0.289s-0.578-0.289-0.867-0.433c-0.144-0.144-0.433-0.289-0.578-0.289-0.289-0.144-0.578-0.433-0.867-0.578-0.144-0.144-0.433-0.289-0.578-0.433-0.289-0.144-0.433-0.433-0.722-0.578-0.144-0.144-0.433-0.289-0.578-0.578-0.144-0.144-0.433-0.433-0.578-0.578-0.289-0.289-0.433-0.433-0.722-0.722-0.144-0.144-0.289-0.289-0.433-0.578-0.289-0.289-0.433-0.578-0.722-0.867-0.144-0.144-0.289-0.289-0.289-0.578-0.289-0.289-0.433-0.722-0.722-1.011 0 0 0-0.144-0.144-0.144-0.578-1.011-53.317-90.162-157.35-152.437l-51.294 18.639c66.61 41.469 110.535 101.576 137.554 150.992 9.825 17.917 17.194 34.1 22.685 47.248l305.452-111.113c-5.635-13.727-11.704-27.020-18.206-40.024-43.636-88.428-94.93-143.767-118.482-166.308zM779.812 791.091c-3.034-5.491-10.981-20.373-21.385-40.746-6.791-13.438-15.605-29.62-24.852-46.67-53.317-97.82-84.382-159.95-65.887-199.541 9.392-20.084 24.852-37.856 39.735-55.051 31.21-36.122 44.936-55.629 36.411-79.036 0 0 0 0 0 0l-8.236-22.54-306.030 111.402 8.236 22.54c8.525 23.407 31.643 29.476 78.747 36.989 22.54 3.612 45.803 7.369 65.887 16.616 39.735 18.495 55.918 86.116 77.88 195.35 3.757 19.073 7.369 36.989 10.837 51.727 5.202 22.251 8.669 38.723 9.825 44.936 18.784 49.416 56.929 74.412 80.047 66.032 14.882-5.346 21.24-22.54 23.696-32.366 5.202-20.373 3.323-45.659-4.913-69.644z" />
<glyph unicode="&#xe910;" glyph-name="list" d="M364.259 869.694h605.557v-91.029h-605.557v91.029zM54.184 869.694h167.030v-91.029h-167.030v91.029zM54.184 493.587h167.030v-91.029h-167.030v91.029zM54.184 117.335h167.030v-91.029h-167.030v91.029zM364.259 493.587h605.557v-91.029h-605.557v91.029zM364.259 117.479h605.557v-91.029h-605.557v91.029z" />
<glyph unicode="&#xe911;" glyph-name="tag-double-right" d="M682.426 949.019l-293.315-19.073-364.115-630.843 145.935-84.238 35.833 61.986-83.949 48.404 309.208 535.769 284.934 18.061-34.533 69.933zM868.818 841.374l-293.315-19.073-364.115-630.843 423.5-244.477 364.259 630.843-130.33 263.55zM608.592 44.801l-299.528 172.954 309.353 535.624 207.488 13.438 92.040-186.392-309.353-535.624zM716.67 577.68c-34.389 19.795-46.092 63.865-26.297 98.253s63.865 46.092 98.253 26.297c34.389-19.795 46.092-63.865 26.297-98.253-19.94-34.244-64.009-46.092-98.253-26.297zM763.051 658.161c-9.97 5.78-22.829 2.312-28.609-7.658s-2.312-22.829 7.658-28.609c9.97-5.78 22.829-2.312 28.609 7.658s2.312 22.829-7.658 28.609z" />
<glyph unicode="&#xe912;" glyph-name="icon-b" d="M1021.929 750.161c-2.761 2.761-7.593 3.106-10.354 0.345v0c-12.77-12.080-25.54-23.814-39.345-33.823-6.903-4.832-14.15-9.664-21.398-13.115s-14.841-6.557-22.088-7.593c-7.248-1.035-14.15-0.69-20.708 1.726s-12.425 6.557-17.947 11.734c-11.389 10.699-20.708 25.194-30.717 40.035s-20.018 30.371-34.168 44.177c-6.903 6.903-15.531 13.46-24.849 18.637s-20.708 7.938-31.407 8.973c-5.522 0.345-10.699 0.345-16.221-0.345s-10.699-1.726-15.876-3.106c-10.354-3.106-20.018-7.938-28.991-14.15-17.256-12.425-29.681-29.681-38.655-47.283-8.973-17.947-14.495-36.929-17.602-55.911s-3.796-38.309-2.416-57.292c1.381-18.982 4.142-37.619 8.628-55.911 4.142-16.566 6.903-32.787 7.938-49.008 0.345-7.938 0.345-15.531-0.345-22.779-0.69-6.903-2.416-13.805-5.177-18.982-2.416-5.177-5.867-8.973-10.354-11.734-4.142-2.761-9.664-4.832-16.566-5.867-13.115-2.071-28.991-0.345-44.522 3.796-3.796 1.035-7.938 2.071-11.734 3.451-3.106 0.69-5.867 2.071-9.319 2.761-1.035 2.416-2.416 4.487-3.796 6.903 5.867 5.867 11.389 12.425 16.221 20.018 19.327 29.336 31.062 70.406 31.062 116.309 0 88.698-44.867 160.485-100.433 160.485-0.345 0-0.69 0-1.035 0-54.531-1.381-99.052-72.822-99.052-160.83 0-57.637 18.982-108.026 47.628-136.671-1.381-2.071-2.761-4.487-3.796-6.903-3.106-0.69-5.867-2.071-9.319-2.761-3.796-1.381-7.938-2.416-11.734-3.451-15.531-3.796-31.407-5.867-44.522-3.796-6.557 1.035-12.080 2.761-16.566 5.867-4.142 2.761-7.593 6.557-10.354 11.734s-4.487 11.734-5.177 18.982c-0.69 6.903-1.035 14.841-0.345 22.779 1.035 15.876 3.796 32.097 7.938 49.008 4.487 18.292 7.593 36.929 8.628 55.911 1.381 18.982 0.69 38.309-2.416 57.292s-8.628 37.964-17.602 55.911c-8.973 17.602-21.398 34.858-38.655 47.283-8.628 6.212-18.637 11.044-28.991 14.15-5.177 1.381-10.699 2.416-15.876 3.106-5.522 0.69-10.699 0.69-16.221 0.345-10.699-0.69-21.743-3.796-31.407-8.973-9.664-4.832-17.947-11.389-24.849-18.637-14.15-13.805-24.159-29.681-34.168-44.177-9.664-14.841-19.327-28.991-30.717-40.035-5.522-5.522-11.734-9.664-17.947-11.734-6.557-2.416-13.46-2.761-20.708-1.726s-14.841 3.796-22.088 7.593c-7.248 3.796-14.495 7.938-21.398 13.115-13.805 10.354-26.575 21.743-39.345 34.168v0c-2.761 2.761-6.903 2.761-10.009 0.345-3.106-2.761-3.451-7.248-0.69-10.354 11.734-13.46 24.504-26.575 39-38.309 6.903-5.867 14.841-11.389 23.124-16.221s17.602-8.973 27.61-11.044c10.354-2.416 21.743-2.071 32.097 1.381 10.699 3.451 19.672 9.319 26.92 15.876 7.593 6.557 13.805 13.805 19.672 21.053s11.389 14.495 16.566 21.743c10.699 14.15 20.708 27.956 32.442 38.655 5.867 5.177 11.734 9.664 17.947 12.425s12.77 4.487 19.672 4.832c3.451 0.345 6.903 0 10.354-0.69s6.903-1.381 10.354-2.416c6.557-2.416 12.77-5.867 18.292-10.354 11.389-8.628 20.363-21.398 26.92-35.548s10.699-30.026 12.425-45.902c2.071-15.876 2.416-32.442 0.69-49.008-1.381-16.566-4.487-32.787-8.628-49.008-4.832-17.947-8.628-36.239-10.354-55.911-0.69-9.664-0.69-20.018 0.345-30.371 0.345-2.761 0.69-5.177 1.381-7.938l0.69-3.796 1.035-3.796c0.69-2.761 1.726-5.522 2.416-7.938 1.035-2.761 2.071-5.522 3.451-7.938 4.832-10.699 13.46-21.053 23.814-27.956 10.354-7.248 22.088-10.699 33.132-12.77s21.743-1.726 31.752-0.69c1.726 0.345 3.451 0.345 5.522 0.69-10.699-8.628-21.743-16.911-33.132-23.814-12.425-7.593-24.849-14.495-37.274-18.292-6.212-2.071-12.425-3.451-17.947-3.796s-10.699 0-15.531 1.381-8.628 3.796-12.425 6.903c-3.796 3.451-7.248 7.938-10.354 13.46-5.867 10.699-10.354 24.159-13.115 37.964-2.761 14.841-5.522 30.371-8.628 45.557-2.761 15.531-5.522 30.717-8.628 46.593-3.451 15.876-6.557 31.752-12.77 47.973-1.726 4.142-3.451 8.283-5.522 12.77-2.416 4.487-4.832 8.628-8.628 13.115s-8.628 9.319-15.876 12.080c-3.451 1.381-7.248 2.416-11.044 2.761s-7.248 0-10.354-0.69c-6.557-1.381-11.734-3.451-16.221-5.867s-8.283-5.522-11.734-7.938c-6.903-5.867-13.115-11.734-18.637-17.947-2.761-3.106-5.522-6.212-7.938-9.319l-7.593-8.973c-4.832-5.867-9.664-11.734-14.841-17.602-4.832-5.867-10.009-11.389-15.186-16.911-4.832-5.522-10.354-10.699-15.531-15.186-2.761-2.416-5.522-4.142-7.938-5.867s-5.177-2.761-7.248-3.451c-1.035-0.345-1.726-0.345-2.761-0.69-0.69 0-1.381 0-1.726 0-1.035 0.345-2.416 1.035-4.142 2.761-3.451 3.451-6.557 10.009-8.628 16.566-2.416 6.557-3.796 13.805-5.522 21.398-2.761 14.841-4.487 30.026-5.867 45.557v0c-0.345 3.796-3.451 6.557-7.248 6.557-4.142 0-7.593-3.106-7.593-7.248-0.345-15.876 0-31.752 1.381-47.973 0.69-7.938 2.071-16.221 3.796-24.504 1.035-4.142 2.416-8.283 3.796-12.77 1.726-4.142 3.796-8.628 6.903-12.77 3.451-4.142 7.938-8.628 14.495-11.044s13.115-2.416 18.637-1.035c5.522 1.381 10.354 3.451 14.495 5.522 4.142 2.416 7.938 4.832 11.389 7.248 13.805 10.354 25.194 21.743 36.239 33.132 5.522 5.867 10.699 11.734 16.221 17.256l7.938 8.628c2.416 2.761 4.832 5.522 7.593 7.938 5.177 5.177 10.354 10.009 15.531 13.805 2.416 1.726 5.177 3.451 7.593 4.832s4.487 1.726 5.867 2.071c1.381 0 1.381 0 1.381-0.345 0.345-0.345 1.381-0.69 2.416-2.416 2.416-3.451 5.177-9.319 7.248-15.531 4.487-12.77 6.903-27.956 9.664-42.796 5.177-30.026 9.319-61.433 14.841-92.84 3.106-16.566 7.593-33.823 16.566-50.389 4.487-8.283 10.354-16.566 17.947-23.814s17.602-13.115 27.956-16.221c10.354-3.451 21.053-3.796 31.062-3.451 10.009 0.69 18.982 2.761 27.956 5.522 17.256 5.522 32.442 13.805 46.938 22.779 10.699 6.557 21.053 14.15 30.717 21.743-6.557-9.664-13.46-19.327-20.708-28.646-17.602-22.779-36.239-44.522-56.601-62.468-10.354-8.973-21.053-16.911-32.097-22.433-5.522-2.761-11.044-4.832-16.221-6.212s-10.009-1.726-14.495-1.035c-4.487 0.69-8.628 2.071-12.77 4.487s-7.938 5.867-11.734 10.699c-0.69 1.035-1.726 2.416-2.761 3.451l-1.381 2.071-1.726 2.071c-2.071 2.761-4.142 5.867-6.212 8.628-4.142 5.867-7.938 11.734-12.080 17.602-7.938 11.734-14.841 24.159-22.088 36.929-3.796 6.557-7.248 12.77-11.734 20.018-2.416 3.451-4.487 6.903-7.593 10.699s-6.903 7.593-11.734 10.699c-4.832 3.451-10.354 5.522-15.531 6.903s-10.354 1.726-14.841 1.726c-2.416 0-4.487-0.345-6.557-0.345-2.416-0.345-4.487-0.345-6.903-0.69-4.487-0.69-9.319-1.726-13.805-3.451-8.973-3.451-17.602-8.628-24.159-15.186s-11.734-14.495-15.531-22.433c-7.248-16.221-9.319-33.132-8.628-49.354s3.451-31.752 7.938-46.938 10.699-28.991 17.602-42.796c6.903-13.46 15.186-26.575 24.159-38.655 2.071-2.761 6.212-3.796 9.664-2.071 3.451 2.071 4.832 6.557 2.761 10.009v0c-6.903 12.77-13.805 25.54-18.982 39-5.522 13.46-10.009 26.92-13.115 40.38-2.761 13.805-4.832 27.61-4.487 41.070s3.106 26.575 8.628 36.929c5.522 10.699 13.805 17.947 23.814 21.053 2.416 0.69 5.177 1.381 7.938 1.381 1.381 0.345 2.761 0.345 4.142 0.345s3.106 0 4.487-0.345c2.761-0.345 5.522-0.69 7.248-1.381s3.106-1.381 4.487-2.416c2.416-1.726 5.522-6.557 8.628-12.425 3.106-5.522 6.557-12.425 9.664-18.982 3.451-6.557 6.557-13.46 10.354-20.018 3.451-6.557 7.593-13.46 11.389-20.018s7.938-13.115 12.425-19.672c2.071-3.106 4.142-6.557 6.557-9.664l1.726-2.416 0.69-1.381 1.035-1.381c1.381-1.726 2.761-3.451 4.142-5.177 5.867-6.903 12.77-13.46 21.053-18.982s18.292-9.319 28.646-10.699c10.354-1.381 20.363-0.69 29.681 1.381s17.602 5.522 25.194 9.319c15.531 7.593 28.646 17.602 40.725 27.956 24.159 20.708 44.177 44.177 62.814 68.336 6.212 7.938 12.425 16.221 17.947 24.504-2.071-20.708-5.177-41.416-10.009-61.433-4.832-20.363-11.734-40.38-21.053-56.946-4.832-8.283-10.354-15.876-16.911-21.398-3.106-2.761-6.557-5.522-10.009-7.248-3.451-2.071-7.593-3.796-11.389-5.177-7.938-2.761-15.876-3.451-25.54-2.761s-20.018 2.761-32.097 4.487c-6.212 0.69-12.77 1.381-20.018 0.69s-15.186-2.071-22.088-5.522c-6.903-3.451-13.46-7.938-18.292-12.77s-9.319-10.354-12.77-16.566c-3.451-6.212-6.212-13.115-7.593-20.363s-1.381-14.495 0-21.743c2.416-14.15 9.664-26.575 18.292-35.893 4.487-4.832 9.319-8.973 14.15-12.77s10.354-6.903 15.876-9.664c5.522-2.761 11.044-4.832 16.566-6.903s11.389-3.451 16.911-4.832c3.451-0.69 6.903 1.035 8.628 4.487 1.381 3.796-0.345 7.938-3.796 9.664h1.035c-10.009 4.142-19.672 8.628-27.956 14.841-8.628 5.867-15.876 12.77-21.398 20.363s-8.973 16.221-9.664 24.159c-0.345 7.938 1.726 15.876 6.557 22.088 2.416 3.451 5.177 6.557 8.628 9.319s6.557 4.487 9.664 5.522 6.557 1.726 10.354 1.381c3.796 0 8.283-0.69 13.46-1.726 9.664-1.726 21.053-5.177 33.823-6.903 6.557-0.69 13.46-1.381 20.018-0.69 6.903 0.345 13.805 1.381 20.708 3.451 6.903 1.726 13.46 4.487 19.672 7.938s12.080 7.593 17.256 12.080c10.354 9.319 18.637 19.672 25.194 30.717 13.115 22.088 20.708 45.212 26.575 68.336 4.487 17.947 7.593 35.893 9.664 53.84 2.416-17.947 5.177-35.893 9.664-53.84 5.867-23.124 13.46-46.247 26.575-68.336 6.557-11.044 14.841-21.743 25.194-30.717 5.177-4.487 11.044-8.628 17.256-12.080s12.77-5.867 19.672-7.938c6.903-1.726 13.805-3.106 20.708-3.451s13.805 0 20.018 0.69c12.77 1.726 24.159 4.832 33.823 6.903 4.832 1.035 9.319 1.726 13.46 1.726 3.796 0 7.248-0.345 10.354-1.381 3.451-1.035 6.557-2.761 9.664-5.522s6.212-5.867 8.628-9.319c4.832-6.557 6.903-14.15 6.557-22.088s-3.796-16.566-9.664-24.159c-5.522-7.593-12.77-14.841-21.398-20.363-8.628-5.867-17.947-10.699-27.956-14.841h-0.345c-3.451-1.381-5.177-4.832-4.487-8.628s4.832-6.557 8.973-5.522c5.867 1.381 11.389 2.761 16.911 4.832 5.522 1.726 11.389 4.142 16.566 6.903 5.522 2.761 10.699 5.867 15.876 9.664 4.832 3.796 10.009 7.938 14.15 12.77 8.628 9.664 15.876 21.743 18.292 35.893 1.381 6.903 1.381 14.495 0 21.743s-3.796 14.15-7.593 20.363c-3.451 6.212-7.938 11.734-12.77 16.566s-11.389 9.664-18.292 12.77c-6.903 3.451-14.841 4.832-22.088 5.522-7.248 0.345-14.15 0-20.018-0.69-12.425-1.726-22.779-3.796-32.097-4.487-9.664-0.69-17.602 0-25.54 2.761-3.796 1.381-7.938 3.106-11.389 5.177s-6.903 4.487-10.009 7.248c-6.212 5.867-11.734 13.115-16.911 21.398-9.664 16.566-16.566 36.584-21.053 56.946-4.832 20.018-7.938 40.38-10.009 61.433 5.867-8.283 11.734-16.566 17.947-24.504 18.637-24.159 38.655-47.628 62.814-68.336 12.080-10.354 25.194-20.018 40.725-27.956 7.593-3.796 16.221-7.248 25.194-9.319 9.319-2.071 19.327-2.761 29.681-1.381s20.018 5.522 28.646 10.699c8.628 5.522 15.531 12.080 21.053 18.982 1.381 1.726 2.761 3.451 4.142 5.177l1.035 1.381 0.69 1.381 1.726 2.416c2.416 3.106 4.487 6.212 6.557 9.664 4.142 6.557 8.283 12.77 12.425 19.672 3.796 6.557 7.593 13.46 11.389 20.018 3.451 6.557 6.903 13.46 10.354 20.018s6.557 13.46 9.664 18.982c3.106 5.867 6.212 10.354 8.628 12.425 1.381 1.035 2.416 1.726 4.487 2.416 1.726 0.69 4.487 1.381 7.248 1.381 1.381 0.345 2.761 0.345 4.487 0.345 1.381 0 2.761 0 4.142-0.345 2.761-0.345 5.522-0.69 7.938-1.381 10.009-2.761 18.292-10.354 23.814-21.053s8.283-23.469 8.628-36.929-1.381-27.265-4.487-41.070-7.593-27.265-13.115-40.38c-5.522-13.46-12.080-26.23-18.982-39v0c-1.726-3.451-1.035-7.593 2.071-9.664 3.451-2.416 7.938-1.726 10.354 1.726 8.973 12.425 16.911 25.194 24.159 38.655 6.903 13.46 13.115 27.956 17.602 42.796s7.593 30.717 7.938 46.938c0.345 16.221-1.381 33.132-8.628 49.354-3.796 7.938-8.628 15.876-15.531 22.433-6.557 6.557-15.186 12.080-24.159 15.186-4.487 1.726-9.319 2.761-13.805 3.451-2.416 0.345-4.487 0.69-6.903 0.69s-4.487 0.345-6.557 0.345c-4.487 0-9.664-0.345-14.841-1.726s-10.699-3.451-15.531-6.903c-4.832-3.451-8.628-7.248-11.734-10.699-3.106-3.796-5.522-7.593-7.593-10.699-4.487-6.903-7.938-13.46-11.734-20.018-7.248-12.77-14.495-24.849-22.088-36.929-3.796-5.867-7.938-11.734-12.080-17.602-2.071-2.761-4.142-5.867-6.212-8.628l-1.726-2.071-1.381-2.071c-0.69-1.381-1.726-2.416-2.761-3.451-3.796-4.487-7.593-7.938-11.734-10.699-4.142-2.416-8.283-3.796-12.77-4.487s-9.319-0.345-14.495 1.035c-5.177 1.381-10.699 3.451-16.221 6.212-11.044 5.522-21.743 13.46-32.097 22.433-20.708 17.947-39.345 39.69-56.601 62.468-6.903 9.319-13.805 18.982-20.708 28.646 9.664-7.593 20.018-14.841 30.717-21.743 14.495-8.973 29.681-16.911 46.938-22.779 8.628-2.761 17.947-4.832 27.956-5.522 9.664-0.69 20.708 0 31.062 3.451s20.018 9.319 27.956 16.221c7.593 6.903 13.805 15.531 17.947 23.814 8.973 16.911 13.46 33.823 16.566 50.389 5.867 31.407 9.664 62.468 14.841 92.84 2.416 14.841 5.522 30.026 9.664 42.796 2.071 6.557 4.832 12.425 7.248 15.531 1.381 1.726 2.071 2.416 2.416 2.416 0.345 0.345 0.345 0.345 1.381 0.345 1.381 0 3.451-0.69 5.867-2.071s4.832-2.761 7.593-4.832c5.177-3.796 10.699-8.628 15.531-13.805 2.416-2.761 4.832-5.177 7.593-7.938l7.938-8.628c5.522-5.867 10.699-11.734 16.221-17.256 11.044-11.389 22.433-23.124 36.239-33.132 3.451-2.416 7.248-4.832 11.389-7.248s8.628-4.487 14.495-5.522c5.522-1.381 12.425-1.381 18.637 1.035s11.389 6.557 14.495 11.044c3.451 4.487 5.522 8.628 6.903 12.77 1.726 4.487 2.761 8.628 3.796 12.77 2.071 8.283 3.106 16.566 3.796 24.504 1.726 16.221 1.726 32.097 1.381 47.973 0 3.796-2.761 6.903-6.557 7.248-4.142 0.345-7.593-2.416-7.938-6.557v0c-1.381-15.531-3.106-30.717-5.867-45.557-1.381-7.593-3.106-14.495-5.522-21.398-2.416-6.557-5.177-13.115-8.628-16.566-1.726-1.726-3.106-2.416-4.142-2.761-0.69-0.345-1.035-0.345-1.726 0-0.69 0-1.726 0.345-2.761 0.69-2.071 0.69-4.487 1.726-7.248 3.451s-5.177 3.796-7.938 5.867c-5.522 4.487-10.699 9.664-15.531 15.186-5.177 5.522-10.354 11.044-15.186 16.911s-10.009 11.734-14.841 17.602l-7.593 8.973c-2.416 3.106-5.177 6.212-7.938 9.319-5.522 6.212-11.734 12.425-18.637 17.947-3.451 2.761-7.593 5.522-11.734 7.938-4.487 2.416-9.664 4.832-16.221 5.867-3.451 0.69-6.903 0.69-10.354 0.69-3.796-0.345-7.593-1.381-11.044-2.761-6.903-2.761-12.080-7.593-15.876-12.080s-6.557-8.973-8.628-13.115c-2.416-4.487-3.796-8.628-5.522-12.77-5.867-16.566-9.664-32.442-12.77-47.973s-5.867-31.062-8.628-46.593c-2.761-15.531-5.522-30.717-8.628-45.557-2.761-13.805-6.903-27.61-13.115-37.964-3.106-5.522-6.557-9.664-10.354-13.46-3.796-3.451-7.938-5.522-12.425-6.903s-9.664-1.726-15.531-1.381c-5.522 0.345-11.734 1.726-17.947 3.796-12.425 4.142-25.194 10.699-37.274 18.292-11.389 6.903-22.433 15.531-33.132 23.814 1.726-0.345 3.451-0.345 5.522-0.69 10.354-0.69 20.708-0.69 31.752 0.69 11.044 1.726 22.779 5.522 33.132 12.77s18.982 17.256 23.814 27.956c1.381 2.761 2.416 5.522 3.451 7.938 0.69 2.761 1.726 5.522 2.416 7.938l1.035 3.796 0.69 3.796c0.69 2.761 0.69 5.177 1.381 7.938 1.381 10.699 1.381 20.708 0.345 30.371-1.726 19.672-5.522 38.309-10.354 55.911-4.487 15.876-7.248 32.442-8.628 49.008s-1.035 32.787 0.69 49.008c2.071 15.876 5.867 31.752 12.425 45.902s15.531 26.92 26.92 35.548c5.522 4.487 11.734 7.938 18.292 10.354 3.451 1.035 6.557 1.726 10.354 2.416 3.451 0.69 6.903 0.69 10.354 0.69 6.903-0.345 13.46-1.726 19.672-4.832 6.212-2.761 12.425-7.248 17.947-12.425 11.734-10.699 21.743-24.159 32.442-38.655 5.177-6.903 10.699-14.495 16.566-21.743s12.425-14.495 19.672-21.053c7.593-6.557 16.566-12.425 26.92-15.876s21.743-3.451 32.097-1.381c10.354 2.416 19.327 6.557 27.61 11.044 8.283 4.832 15.876 10.354 23.124 16.221 14.495 11.734 26.92 24.849 39 38.309 3.796 2.761 3.796 7.248 1.035 10.009z" />
<glyph unicode="&#xe913;" glyph-name="tag-double" d="M398.937 919.832l-256.759-171.221v-764.93h176.856v75.135h-101.721v649.627l249.679 166.019-68.055 45.37zM624.919 919.832l-256.614-171.221v-764.93h513.373v764.93l-256.759 171.221zM806.543 58.816h-363.103v649.627l181.624 121.083 181.624-121.083v-649.627zM624.919 600.22c-41.613 0-75.424 33.811-75.424 75.424s33.811 75.424 75.424 75.424c41.613 0 75.424-33.811 75.424-75.424 0.144-41.469-33.811-75.424-75.424-75.424zM624.919 697.751c-12.137 0-21.962-9.825-21.962-21.962s9.825-21.962 21.962-21.962 21.962 9.825 21.962 21.962-9.825 21.962-21.962 21.962z" />
<glyph unicode="&#xe914;" glyph-name="tag-double-left" d="M155.038 841.374l-130.041-263.55 364.259-630.843 145.935 84.238-35.833 61.986-83.949-48.404-309.353 535.769 126.862 255.892-77.88 4.913zM341.574 949.019l-130.185-263.55 364.259-630.843 423.5 244.477-364.404 630.843-293.17 19.073zM901.328 325.4l-299.528-172.954-309.353 535.624 92.040 186.392 207.488-13.438 309.353-535.624zM493.722 685.325c-34.389-19.795-78.314-7.947-98.253 26.297-19.795 34.389-7.947 78.314 26.297 98.253 34.389 19.795 78.314 7.947 98.253-26.297 19.795-34.389 8.091-78.458-26.297-98.253zM447.341 765.806c-9.97-5.78-13.438-18.639-7.658-28.609s18.639-13.438 28.609-7.658 13.438 18.639 7.658 28.609c-5.78 9.97-18.639 13.438-28.609 7.658z" />
<glyph unicode="&#xe915;" glyph-name="tag-right" d="M543.138-21.52l-444.74 256.759 382.465 662.342 307.908 19.94 136.687-276.698-382.32-662.342zM201.13 262.692l314.555-181.624 324.669 562.499-96.664 195.784-217.891-14.16-324.669-562.499zM628.965 640.677c-35.978 20.807-48.404 67.043-27.598 103.166 20.807 35.978 67.043 48.404 103.166 27.598 35.978-20.807 48.404-67.043 27.598-103.166-20.807-35.978-67.043-48.404-103.166-27.598zM677.802 725.204c-10.548 6.069-23.985 2.456-30.054-8.091s-2.456-23.985 8.091-30.054c10.548-6.069 23.985-2.456 30.054 8.091s2.312 23.985-8.091 30.054z" />
<glyph unicode="&#xe916;" glyph-name="tag-left" d="M925.458 235.239l-444.595-256.759-382.465 662.342 136.687 276.698 307.908-19.94 382.465-662.342zM508.316 81.068l314.555 181.624-324.813 562.499-217.746 14.16-96.664-195.784 324.669-562.499zM394.891 640.677c-35.978-20.807-82.359-8.38-103.166 27.598s-8.38 82.359 27.598 103.166c35.978 20.807 82.359 8.38 103.166-27.598 20.951-35.978 8.525-82.359-27.598-103.166zM346.198 725.204c-10.548-6.069-14.16-19.506-8.091-30.054s19.506-14.16 30.054-8.091 14.16 19.506 8.091 30.054-19.506 14.16-30.054 8.091z" />
<glyph unicode="&#xe917;" glyph-name="hamburger-right" d="M326.836 869.694h697.164v-91.029h-697.164v91.029zM0 117.479h1024v-91.029h-1024v91.029zM198.096 493.587h825.904v-91.029h-825.904v91.029z" />
<glyph unicode="&#xe918;" glyph-name="hamburger-circle" d="M163.418 869.694h697.164v-91.029h-697.164v91.029zM163.418 117.479h697.164v-91.029h-697.164v91.029zM0 493.587h1024v-91.029h-1024v91.029z" />
<glyph unicode="&#xe919;" glyph-name="hamburger-left" d="M0 869.694h697.164v-91.029h-697.164v91.029zM0 117.479h1024v-91.029h-1024v91.029zM0 493.587h825.904v-91.029h-825.904v91.029z" />
<glyph unicode="&#xe91a;" glyph-name="wifi" d="M573.48 157.070c0-33.995-27.558-61.553-61.553-61.553s-61.553 27.558-61.553 61.553c0 33.995 27.558 61.553 61.553 61.553s61.553-27.558 61.553-61.553zM617.839 359.211c-32.51 16.616-69.211 25.286-105.911 25.286s-73.401-8.814-105.911-25.286c-31.499-16.038-59.385-39.446-80.625-67.621l54.617-41.18c31.499 41.758 79.614 65.743 131.919 65.743s100.42-23.985 131.919-65.743l54.617 41.18c-21.24 28.176-49.127 51.583-80.625 67.621zM711.902 551.094c-62.275 31.643-129.607 47.826-199.974 47.826s-137.699-16.183-199.974-47.826c-59.385-30.198-111.98-74.412-152.292-127.729l54.617-41.18c71.089 94.207 179.601 148.247 297.649 148.247s226.56-54.039 297.649-148.247l54.617 41.18c-40.168 53.317-92.907 97.386-152.292 127.729zM802.641 731.128c-90.451 46.092-188.27 69.5-290.714 69.5-102.299 0-200.119-23.407-290.714-69.5-86.26-43.925-162.696-108.223-221.214-185.67l54.617-41.18c109.234 144.779 275.976 227.861 457.311 227.861s348.076-83.082 457.455-227.861l54.617 41.18c-58.518 77.447-135.098 141.745-221.359 185.67z" />
<glyph unicode="&#xe91b;" glyph-name="layers" d="M510.338 886.888l-510.194-296.493-0.144-65.454 513.517-296.638 510.194 296.493 0.289 65.598zM513.517 135.541l-460.923 266.15-52.45-30.487-0.144-65.598 513.517-296.493 510.194 296.493 0.289 65.598-52.594 30.343z" />
<glyph unicode="&#xe91c;" glyph-name="user" d="M614.66 326.123c88.283 58.374 149.836 154.171 149.836 257.048 0 139.433-112.991 252.568-252.568 252.568s-252.568-112.991-252.568-252.568c0-102.877 61.553-198.674 149.836-257.048-229.305-37.423-401.682-197.807-401.682-389.978h1008.54c0.144 192.172-172.232 352.555-401.393 389.978z" />
<glyph unicode="&#xe91d;" glyph-name="magnify-left" d="M785.881 755.547c-45.37 78.603-118.771 134.954-206.476 158.361s-179.456 11.415-258.059-33.955-134.954-118.771-158.505-206.476-11.415-179.456 33.955-258.059 118.771-134.954 206.476-158.505c72.823-19.506 148.391-14.449 216.879 13.727l173.388-300.25 79.325 45.803-173.388 300.25c58.807 45.225 100.854 108.223 120.36 181.046 23.552 87.705 11.415 179.312-33.955 258.059zM615.672 370.192c-118.771-68.488-271.063-27.742-339.551 91.029s-27.742 271.063 91.029 339.551c118.771 68.488 271.063 27.742 339.551-91.029s27.598-271.063-91.029-339.551z" />
<glyph unicode="&#xe91e;" glyph-name="magnify" d="M852.057 619.871c0 90.884-35.4 176.278-99.554 240.576s-149.692 99.554-240.576 99.554-176.278-35.4-240.576-99.554-99.554-149.692-99.554-240.576 35.4-176.278 99.554-240.431c53.317-53.317 121.227-86.694 194.772-96.519v-346.776h91.607v346.776c73.545 9.825 141.456 43.202 194.772 96.519 64.154 64.154 99.554 149.547 99.554 240.431zM511.928 371.204c-137.121 0-248.667 111.546-248.667 248.667s111.691 248.667 248.667 248.667c137.121 0 248.667-111.546 248.667-248.667s-111.546-248.667-248.667-248.667z" />
<glyph unicode="&#xe91f;" glyph-name="magnify-right" d="M827.205 415.418c45.37 78.747 57.507 170.354 33.955 258.059s-79.758 161.106-158.505 206.476-170.354 57.507-258.059 33.955-161.106-79.758-206.621-158.361-57.362-170.354-33.955-258.203c19.506-72.823 61.697-135.676 120.36-181.046l-173.388-300.25 79.325-45.803 173.388 300.25c68.633-28.176 144.056-33.233 216.879-13.727 87.85 23.696 161.106 79.903 206.621 158.65zM408.328 370.192c-118.771 68.488-159.517 220.925-91.029 339.551s220.925 159.517 339.551 91.029c118.771-68.488 159.517-220.925 91.029-339.551s-220.925-159.661-339.551-91.029z" />
<glyph unicode="&#xe920;" glyph-name="pencil-left" d="M399.226 918.965l-191.016-110.246c-12.86-7.369-17.194-23.841-9.825-36.7l370.472-641.535c0 0 0 0 0 0 0.433-0.722 0.867-1.3 1.3-2.023 0.144-0.144 0.289-0.289 0.289-0.433 0.433-0.578 0.867-1.156 1.445-1.734 0.144-0.144 0.289-0.289 0.433-0.433 0.433-0.433 0.722-0.867 1.156-1.3 0.144-0.144 0.433-0.289 0.578-0.578 0.578-0.433 1.011-0.867 1.589-1.3 0.144-0.144 0.433-0.289 0.578-0.433s0.433-0.289 0.578-0.433l210.233-143.623c8.525-5.78 19.651-6.213 28.609-1.011s14.16 15.027 13.293 25.286l-19.073 253.869c0 0.289 0 0.578-0.144 0.722 0 0.289 0 0.578-0.144 0.722-0.144 0.722-0.144 1.445-0.289 2.023 0 0.289-0.144 0.433-0.144 0.722-0.144 0.578-0.289 1.156-0.433 1.734 0 0.144-0.144 0.433-0.144 0.578-0.289 0.722-0.578 1.445-0.867 2.167-0.144 0.144-0.144 0.289-0.289 0.578-0.289 0.722-0.722 1.445-1.156 2.167 0 0 0 0 0 0l-370.472 641.535c-7.224 12.715-23.696 17.050-36.556 9.681zM762.329 173.108l-89.728-51.727-30.198 20.662 117.181 67.621 2.745-36.556zM601.8 180.621l-263.55 456.444 56.207 32.366 214.568-371.773c5.202-8.958 16.472-11.993 25.43-6.791s11.993 16.472 6.791 25.43l-214.568 371.773 56.207 32.366 263.55-456.444-144.634-83.371zM258.348 775.631l144.634 83.515 53.172-92.040-144.634-83.515-53.172 92.040zM771.287 53.904l-64.587 44.069 58.663 33.811 5.924-77.88z" />
<glyph unicode="&#xe921;" glyph-name="pencil" d="M622.318 960h-220.636c-14.882 0-26.875-11.993-26.875-26.875v-740.655c0 0 0 0 0 0 0-0.722 0-1.589 0.144-2.312 0-0.144 0-0.433 0-0.578 0.144-0.722 0.144-1.445 0.289-2.167 0-0.144 0.144-0.433 0.144-0.578 0.144-0.578 0.289-1.156 0.433-1.734 0-0.289 0.144-0.433 0.289-0.722 0.144-0.722 0.433-1.3 0.722-1.878 0.144-0.289 0.144-0.433 0.289-0.722s0.144-0.433 0.289-0.722l110.246-229.594c4.479-9.247 13.871-15.171 24.13-15.171s19.651 5.924 24.13 15.171l110.246 229.594c0.144 0.289 0.144 0.433 0.289 0.722s0.144 0.433 0.289 0.722c0.289 0.578 0.433 1.3 0.722 2.023 0.144 0.289 0.144 0.433 0.144 0.722 0.144 0.578 0.289 1.156 0.433 1.734 0 0.144 0.144 0.433 0.144 0.578 0.144 0.722 0.289 1.445 0.289 2.167 0 0.144 0 0.433 0 0.578 0.144 0.867 0.144 1.589 0.144 2.456 0 0 0 0 0 0v740.366c0.433 14.882-11.559 26.875-26.297 26.875zM563.8 132.506h-103.599l-15.894 33.088h135.243l-15.749-33.088zM428.557 219.2v527.099h64.876v-429.28c0-10.259 8.38-18.639 18.639-18.639s18.639 8.38 18.639 18.639v429.28h64.876v-527.099h-167.030zM428.557 906.394h166.886v-106.345h-166.886v106.345zM511.928 24.861l-33.811 70.511h67.766l-33.955-70.511z" />
<glyph unicode="&#xe922;" glyph-name="pencil-right" d="M815.646 808.719l-191.016 110.246c-12.86 7.369-29.187 3.034-36.7-9.825l-370.472-641.535c0 0 0 0 0 0-0.433-0.722-0.722-1.445-1.156-2.167-0.144-0.144-0.144-0.289-0.289-0.578-0.289-0.722-0.578-1.445-0.867-2.167 0-0.144-0.144-0.433-0.144-0.578-0.144-0.578-0.289-1.156-0.433-1.734 0-0.289-0.144-0.433-0.144-0.722-0.144-0.722-0.289-1.3-0.289-2.023 0-0.289 0-0.578-0.144-0.722 0-0.289 0-0.578-0.144-0.722l-19.217-253.869c-0.722-10.259 4.335-20.084 13.293-25.286s20.084-4.768 28.609 1.011l210.233 143.623c0.289 0.144 0.433 0.289 0.578 0.433s0.433 0.289 0.578 0.433c0.578 0.433 1.156 0.867 1.589 1.3 0.144 0.144 0.433 0.289 0.578 0.578 0.433 0.433 0.867 0.867 1.156 1.3 0.144 0.144 0.289 0.289 0.433 0.433 0.433 0.578 1.011 1.156 1.445 1.734 0.144 0.144 0.289 0.289 0.289 0.433 0.433 0.722 0.867 1.3 1.3 2.023 0 0 0 0 0 0l370.906 641.68c7.369 12.86 2.89 29.331-9.97 36.7zM351.255 121.381l-89.728 51.727 2.745 36.556 117.181-67.621-30.198-20.662zM277.565 263.992l263.55 456.444 56.207-32.366-214.712-371.773c-5.202-8.958-2.023-20.373 6.791-25.43 8.958-5.202 20.373-2.023 25.43 6.791l214.568 371.773 56.207-32.366-263.55-456.444-144.49 83.371zM621.018 859.146l144.634-83.515-53.172-92.040-144.634 83.371 53.172 92.185zM252.568 53.904l5.924 78.025 58.663-33.811-64.587-44.214z" />
<glyph unicode="&#xe923;" glyph-name="gear" d="M511.928-64c-22.251 0-44.792 1.445-66.899 4.335l-20.662 2.745-33.088 93.196c-5.924 16.761-18.35 29.765-34.822 36.556s-34.389 6.358-50.427-1.3l-89.15-42.48-16.472 12.715c-35.545 27.309-67.332 59.096-94.641 94.641l-12.715 16.472 42.48 89.15c7.658 16.038 8.091 33.955 1.3 50.427s-19.795 28.753-36.556 34.822l-93.196 33.233-2.745 20.662c-2.89 22.107-4.335 44.647-4.335 66.899s1.445 44.792 4.335 66.899l2.745 20.662 93.196 33.088c16.761 5.924 29.765 18.35 36.556 34.822s6.358 34.389-1.3 50.427l-42.48 89.15 12.715 16.472c27.309 35.545 59.096 67.332 94.641 94.641l16.472 12.715 89.15-42.48c16.038-7.658 33.955-8.091 50.427-1.3s28.753 19.795 34.822 36.556l33.088 93.196 20.807 2.745c22.107 2.89 44.647 4.335 66.899 4.335s44.792-1.445 66.899-4.335l20.662-2.745 33.088-93.196c5.924-16.761 18.35-29.765 34.822-36.556s34.389-6.358 50.427 1.3l89.15 42.48 16.472-12.715c35.545-27.309 67.332-59.096 94.641-94.641l12.715-16.472-42.48-89.15c-7.658-16.038-8.091-33.955-1.3-50.427s19.795-28.753 36.556-34.822l93.196-33.088 2.745-20.662c2.89-22.107 4.335-44.647 4.335-66.899s-1.445-44.792-4.335-66.899l-2.745-20.662-93.196-33.088c-16.761-5.924-29.765-18.35-36.556-34.822s-6.358-34.389 1.3-50.427l42.48-89.15-12.715-16.472c-27.309-35.545-59.096-67.332-94.641-94.641l-16.472-12.715-89.15 42.48c-16.038 7.658-33.955 8.091-50.427 1.3s-28.753-19.795-34.822-36.556l-33.088-93.196-20.662-2.745c-22.251-2.89-44.792-4.479-67.043-4.479zM474.36 5.644c24.997-2.167 50.138-2.167 75.135 0l18.928 53.317c12.282 34.678 38.868 62.564 72.823 76.58s72.534 13.149 105.622-2.745l51.149-24.274c19.217 16.183 36.989 33.955 53.172 53.172l-24.13 51.294c-15.749 33.233-16.761 71.667-2.745 105.622s42.047 60.541 76.58 72.823l53.317 18.928c1.011 12.571 1.589 25.141 1.589 37.567s-0.578 25.141-1.589 37.567l-53.317 18.928c-34.678 12.282-62.564 38.868-76.58 72.823s-13.149 72.534 2.745 105.622l24.274 51.149c-16.183 19.217-33.955 36.989-53.172 53.172l-51.149-24.13c-33.233-15.749-71.667-16.761-105.622-2.745s-60.541 42.047-72.823 76.58l-18.928 53.317c-24.997 2.167-50.138 2.167-75.135 0l-18.928-53.317c-12.282-34.678-38.868-62.564-72.823-76.58s-72.534-13.149-105.622 2.745l-51.149 24.274c-19.217-16.183-36.989-33.955-53.172-53.172l24.274-51.149c15.749-33.233 16.761-71.667 2.745-105.622s-42.047-60.541-76.58-72.823l-53.317-18.928c-1.011-12.571-1.589-25.141-1.589-37.567s0.578-24.997 1.589-37.567l53.317-18.928c34.678-12.282 62.564-38.868 76.58-72.823s13.149-72.534-2.745-105.622l-24.274-51.149c16.183-19.217 33.955-36.989 53.172-53.172l51.149 24.274c33.233 15.749 71.667 16.761 105.622 2.745s60.541-42.047 72.823-76.58l18.784-53.606zM511.928 200.272c-136.687 0-247.8 111.113-247.8 247.8s111.113 247.8 247.8 247.8 247.8-111.113 247.8-247.8-111.113-247.8-247.8-247.8zM511.928 650.503c-111.691 0-202.43-90.884-202.43-202.43s90.884-202.43 202.43-202.43 202.43 90.884 202.43 202.43-90.74 202.43-202.43 202.43z" />
<glyph unicode="&#xe924;" glyph-name="spanner-right" d="M255.892 4.633c-28.32 16.327-48.549 42.769-57.074 74.268-8.38 31.499-4.046 64.443 12.282 92.763l239.998 415.697c-17.194 31.643-26.875 66.754-28.32 103.021-1.734 44.214 9.103 87.85 31.21 126.284 24.274 42.191 60.541 75.135 104.466 95.508 43.058 19.94 90.451 26.297 136.976 18.495 10.403-1.734 19.217-8.38 23.696-17.917s4.046-20.662-1.3-29.765l-65.020-112.558 22.54-39.012h45.081l65.020 112.558c5.202 9.103 14.593 15.027 25.141 15.894s20.662-3.468 27.453-11.559c30.054-36.556 48.115-80.77 52.45-127.874 4.335-48.26-6.213-96.086-30.487-138.277-22.251-38.434-54.617-69.644-93.774-90.306-32.077-16.905-67.477-26.008-103.455-26.875l-239.709-415.553c-33.811-58.374-108.656-78.458-167.175-44.792zM635.611 868.538c-51.727-6.791-99.12-37.134-125.995-83.804-32.51-56.351-30.487-124.984 5.491-179.312 6.647-10.114 7.080-23.118 1.011-33.666l-249.39-432.025c-7.802-13.438-9.825-29.187-5.78-44.214s13.727-27.598 27.164-35.4c27.742-16.038 63.431-6.502 79.614 21.385l249.245 432.025c6.069 10.548 17.628 16.761 29.765 15.894 65.020-4.046 125.562 28.465 158.072 84.816 26.875 46.526 29.62 102.732 9.536 150.992l-47.248-81.781c-5.78-9.97-16.327-16.038-27.742-16.038h-82.070c-11.415 0-21.962 6.069-27.742 16.038l-41.035 71.089c-5.78 9.97-5.78 22.107 0 32.077l47.104 81.926zM296.349 74.566c-23.118 13.293-31.065 42.914-17.628 66.032 13.293 23.118 42.914 31.065 66.032 17.628 23.118-13.293 31.065-42.914 17.628-66.032s-42.914-30.921-66.032-17.628zM326.403 126.438c-5.491 3.179-12.715 1.3-15.894-4.19s-1.3-12.715 4.19-15.894c5.491-3.179 12.715-1.3 15.894 4.19 3.179 5.635 1.3 12.715-4.19 15.894z" />
<glyph unicode="&#xe925;" glyph-name="subtract" d="M0 493.587h1024v-91.029h-1024v91.029z" />
<glyph unicode="&#xe926;" glyph-name="add" d="M1024 493.587h-466.558v466.413h-91.029v-466.413h-466.413v-91.029h466.413v-466.558h91.029v466.558h466.558z" />
<glyph unicode="&#xe927;" glyph-name="phone-left" d="M459.044 937.749l-344.753-199.107c-30.487-17.628-41.035-56.785-23.407-87.416l386.511-669.566c17.628-30.487 56.785-41.035 87.416-23.407l344.897 199.107c30.487 17.628 41.035 56.785 23.407 87.416l-386.655 669.566c-17.628 30.632-56.785 41.035-87.416 23.407zM202.864 603.832l328.859 189.86c3.901 2.312 8.958 0.867 11.27-3.034l281.177-487.075c2.312-3.901 0.867-8.958-3.034-11.27l-328.859-189.86c-3.901-2.312-8.958-0.867-11.27 3.034l-281.177 487.075c-2.312 3.901-0.867 8.958 3.034 11.27zM490.688 880.964l33.666-58.229-343.164-198.096-33.666 58.229 343.164 198.096zM533.168 15.036l-33.666 58.229 343.019 198.096 33.666-58.229-343.019-198.096zM310.942 722.17l64.154 36.989c5.924 3.323 7.947 10.837 4.479 16.761s-10.837 7.947-16.761 4.479l-64.154-36.989c-5.924-3.323-7.947-10.837-4.479-16.761s10.981-7.947 16.761-4.479zM699.765 167.328l-38.579-22.251c-6.936-4.046-9.247-12.86-5.346-19.795s12.86-9.247 19.795-5.346l38.579 22.251c6.936 4.046 9.247 12.86 5.346 19.795s-12.86 9.392-19.795 5.346zM408.131 792.433c2.753-4.768 1.119-10.866-3.649-13.619s-10.866-1.119-13.619 3.649c-2.753 4.768-1.119 10.866 3.649 13.619s10.866 1.119 13.619-3.649zM435.877 808.4c2.753-4.768 1.119-10.866-3.649-13.619s-10.866-1.119-13.619 3.649c-2.753 4.768-1.119 10.866 3.649 13.619s10.866 1.119 13.619-3.649z" />
<glyph unicode="&#xe928;" glyph-name="phone" d="M711.035 898.592h-398.214c-35.256 0-64.009-28.753-64.009-64.009v-773.166c0-35.256 28.753-64.009 64.009-64.009h398.214c35.256 0 64.009 28.753 64.009 64.009v773.166c0 35.256-28.753 64.009-64.009 64.009zM322.213 737.486h379.719c4.624 0 8.236-3.757 8.236-8.236v-562.499c0-4.624-3.757-8.236-8.236-8.236h-379.719c-4.624 0-8.236 3.757-8.236 8.236v562.499c-0.144 4.479 3.612 8.236 8.236 8.236zM710.023 833.571v-67.188h-396.191v67.188h396.191zM313.832 62.429v67.188h396.191v-67.188h-396.191zM474.938 785.89h73.979c6.791 0 12.282 5.491 12.282 12.282s-5.491 12.282-12.282 12.282h-73.979c-6.791 0-12.282-5.491-12.282-12.282s5.491-12.282 12.282-12.282zM534.324 111.122h-44.503c-7.947 0-14.449-6.502-14.449-14.449s6.502-14.449 14.449-14.449h44.503c7.947 0 14.449 6.502 14.449 14.449s-6.502 14.449-14.449 14.449zM594.287 798.171c0-5.506-4.464-9.97-9.97-9.97s-9.97 4.464-9.97 9.97c0 5.506 4.464 9.97 9.97 9.97s9.97-4.464 9.97-9.97zM626.219 798.171c0-5.506-4.464-9.97-9.97-9.97s-9.97 4.464-9.97 9.97c0 5.506 4.464 9.97 9.97 9.97s9.97-4.464 9.97-9.97z" />
<glyph unicode="&#xe929;" glyph-name="phone-right" d="M909.708 738.641l-344.897 199.107c-30.487 17.628-69.789 7.080-87.416-23.407l-386.511-669.566c-17.628-30.487-7.080-69.789 23.407-87.416l344.897-199.107c30.487-17.628 69.789-7.080 87.416 23.407l386.511 669.566c17.628 30.632 7.080 69.789-23.407 87.416zM492.277 793.548l328.859-189.86c3.901-2.312 5.346-7.369 3.034-11.27l-281.322-486.931c-2.312-3.901-7.369-5.346-11.27-3.034l-328.715 189.86c-3.901 2.312-5.346 7.369-3.034 11.27l281.177 487.075c2.312 3.901 7.369 5.202 11.27 2.89zM876.331 682.868l-33.666-58.229-343.019 198.096 33.522 58.229 343.164-198.096zM147.669 213.132l33.666 58.229 343.019-198.096-33.666-58.229-343.019 198.096zM648.904 759.159l64.154-36.989c5.924-3.323 13.438-1.445 16.761 4.479s1.445 13.438-4.479 16.761l-64.154 36.989c-5.924 3.323-13.438 1.445-16.761-4.479-3.468-5.924-1.445-13.438 4.479-16.761zM362.814 145.077l-38.579 22.251c-6.936 4.046-15.749 1.589-19.795-5.346s-1.589-15.749 5.346-19.795l38.579-22.251c6.936-4.046 15.749-1.589 19.795 5.346 3.901 7.080 1.589 15.894-5.346 19.795zM754.704 723.729c4.768-2.753 6.402-8.85 3.649-13.619s-8.85-6.402-13.619-3.649c-4.768 2.753-6.402 8.85-3.649 13.619s8.85 6.402 13.619 3.649zM782.267 707.804c4.768-2.753 6.402-8.85 3.649-13.619s-8.85-6.402-13.619-3.649c-4.768 2.753-6.402 8.85-3.649 13.619s8.85 6.402 13.619 3.649z" />
<glyph unicode="&#xe92a;" glyph-name="layers-stroke" d="M510.483 822.735l-509.182-262.249 512.072-289.413 509.327 289.558-512.217 262.105zM513.228 354.009l-360.213 203.442 357.468 184.225 360.358-184.369-357.613-203.297zM1024 362.679l-512.072-289.413-511.928 289.413 73.834 38.001 438.093-244.477 437.949 244.621z" />
<glyph unicode="&#xe92b;" glyph-name="download" d="M511.928 143.488l-310.653 310.653c-4.768 4.768-1.445 13.004 5.346 13.004h182.202v395.902h246.066v-395.902h182.202c6.791 0 10.114-8.236 5.346-13.004l-310.509-310.653zM345.331 402.124l166.741-166.741 166.741 166.741h-108.656v395.902h-116.025v-395.902h-108.801zM829.083 32.953h-634.166c-1.734 0-3.179 1.445-3.179 3.179v58.663c0 1.734 1.445 3.179 3.179 3.179h634.166c1.734 0 3.179-1.445 3.179-3.179v-58.663c0-1.734-1.445-3.179-3.179-3.179z" />
<glyph unicode="&#xe92e;" glyph-name="sweep" d="M170.932 436.658c0 11.848 9.681 21.529 21.529 21.529s21.529-9.681 21.529-21.529c0-5.635 4.479-10.114 10.114-10.114s10.114 4.479 10.114 10.114c0 22.974-18.639 41.613-41.613 41.613s-41.613-18.639-41.613-41.613c0-22.974 18.639-41.613 41.613-41.613h189.715c5.635 0 10.114 4.479 10.114 10.114s-4.479 10.114-10.114 10.114h-189.86c-11.848-0.144-21.529 9.536-21.529 21.385zM125.128 311.385c-5.635 0-10.114-4.479-10.114-10.114 0-6.647-5.346-11.993-11.993-11.993s-11.993 5.346-11.993 11.993c0 6.647 5.346 11.993 11.993 11.993h271.786c5.635 0 10.114 4.479 10.114 10.114s-4.479 10.114-10.114 10.114h-335.217c-10.692 0-19.506 8.669-19.506 19.506 0 10.692 8.669 19.506 19.506 19.506 10.692 0 19.506-8.669 19.506-19.506 0-5.635 4.479-10.114 10.114-10.114s10.114 4.479 10.114 10.114c0 21.818-17.772 39.59-39.59 39.59s-39.735-17.772-39.735-39.59c0-21.818 17.772-39.59 39.59-39.59h33.522c-1.445-3.757-2.312-7.802-2.312-11.993 0-17.772 14.449-32.221 32.221-32.221s32.221 14.449 32.221 32.221c0 5.346-4.624 9.97-10.114 9.97zM407.173 333.492c-5.635 0-10.114-4.479-10.114-10.114s4.479-10.114 10.114-10.114h18.061c5.635 0 10.114 4.479 10.114 10.114s-4.479 10.114-10.114 10.114h-18.061zM28.176 302.715h-18.061c-5.635 0-10.114-4.479-10.114-10.114s4.479-10.114 10.114-10.114h18.061c5.635 0 10.114 4.479 10.114 10.114-0.144 5.491-4.624 10.114-10.114 10.114zM463.235 323.377c0-5.635 4.479-10.114 10.114-10.114h213.845c5.635 0 10.114 4.479 10.114 10.114s-4.479 10.114-10.114 10.114h-213.845c-5.635 0-10.114-4.624-10.114-10.114zM788.77 292.457h-589.519c-24.852 0-45.225-20.229-45.225-45.225 0-24.852 20.229-45.225 45.225-45.225 24.852 0 45.225 20.229 45.225 45.225 0 5.635-4.479 10.114-10.114 10.114s-10.114-4.479-10.114-10.114c0-13.871-11.27-24.997-24.997-24.997-13.871 0-24.997 11.27-24.997 24.997 0 13.871 11.27 24.997 24.997 24.997h589.374c5.635 0 10.114 4.479 10.114 10.114s-4.479 10.114-9.97 10.114zM195.639 354.587h394.457c5.635 0 10.114 4.479 10.114 10.114s-4.479 10.114-10.114 10.114h-394.457c-34.244 0-61.986 27.742-61.986 61.986s27.742 61.986 61.986 61.986c34.244 0 61.986-27.742 61.986-61.986 0-5.635 4.479-10.114 10.114-10.114s10.114 4.479 10.114 10.114c0 45.225-36.845 82.070-82.070 82.070s-82.070-36.845-82.070-82.070 36.556-82.215 81.926-82.215zM1013.163 510.347l-85.971 34.822 10.837 26.875c1.734 4.19 1.734 8.958-0.144 13.149-1.734 4.19-5.057 7.513-9.392 9.247l-242.599 98.253c-4.19 1.734-8.958 1.734-13.149-0.144-4.19-1.734-7.513-5.057-9.247-9.392l-10.837-26.875-85.971 34.822c-4.19 1.734-8.958 1.734-13.149-0.144-4.19-1.734-7.513-5.057-9.247-9.392l-16.905-41.613c-3.612-8.814 0.722-18.784 9.536-22.396l3.323-1.3c-45.081-102.588-120.505-135.243-121.227-135.532-3.757-1.589-6.213-5.202-6.213-9.392 0-4.046 2.456-7.802 6.358-9.247l540.537-218.902c1.156-0.433 2.456-0.722 3.757-0.722 2.601 0 5.346 1.011 7.224 3.034 2.89 2.89 3.612 7.224 2.023 10.981-0.289 0.722-31.932 76.291 7.224 181.768l3.323-1.3c2.023-0.867 4.335-1.3 6.502-1.3 2.312 0 4.479 0.433 6.647 1.3 4.19 1.734 7.513 5.057 9.247 9.392l16.905 41.613c3.757 8.814-0.578 18.784-9.392 22.396zM681.27 672.899l236.963-95.941-9.825-24.13-236.963 95.941 9.825 24.13zM500.224 450.962l-8.38 3.323c10.259 7.080 24.708 18.206 38.579 32.944-8.236-14.738-18.35-28.609-30.198-36.267zM535.191 436.802l-0.867 0.433c2.167 1.589 4.624 3.468 7.080 5.491-2.023-2.167-4.046-4.19-6.213-5.924zM843.099 329.302c0.144-6.647 0.867-12.715 1.589-17.772l-3.757 1.445c-0.289 4.913 0.578 10.548 2.167 16.327zM892.37 336.671c-1.011-17.917 1.011-34.244 3.179-45.659l-10.692 4.335c-1.878 11.848 1.878 27.020 7.513 41.324zM947.565 269.772l-38.579 15.605c-3.612 16.327-10.114 56.496 4.046 91.318 1.156 2.89 0 6.213-2.745 7.658s-6.213 0.578-7.802-2.023c-1.445-2.167-30.776-47.104-30.054-82.070l-14.305 5.78c-2.601 12.571-6.069 38.868 3.323 61.986 1.156 2.89 0 6.213-2.745 7.658s-6.213 0.578-7.802-2.023c-2.456-3.757-20.373-31.788-21.673-55.773l-281.611 114.003c19.94 20.229 31.354 58.663 31.932 60.541 0.867 3.034-0.722 6.358-3.757 7.369s-6.358-0.433-7.513-3.468c-10.837-26.731-35.4-45.803-47.104-53.75l-7.658 3.034c33.088 28.031 52.161 92.763 53.028 95.941 0.867 3.034-0.722 6.358-3.757 7.369s-6.358-0.433-7.513-3.468c-18.061-44.503-60.252-75.135-76.58-85.683l-31.643 12.86c27.598 17.194 78.169 57.362 112.558 135.965l402.26-162.985c-30.487-80.192-22.107-144.201-14.305-175.844zM988.311 456.597l-10.114 4.046c0 0 0 0 0 0l-420.61 170.498c0 0 0 0 0 0l-10.114 4.046 14.593 36.122 99.12-40.168c0 0 0 0 0 0l242.599-98.253c0 0 0 0 0 0l99.12-40.168-14.593-36.122z" />
<glyph unicode="&#xe92f;" glyph-name="caret-down" d="M53.084 621.635h123.633l335.283-381.517 335.283 381.517h123.633l-458.916-522.274z" />
<glyph unicode="&#xe932;" glyph-name="play" d="M565.822 188.857c-3.468 0-6.936 0.722-10.259 2.023-10.114 4.19-16.472 13.871-16.472 24.708v375.818c0 6.358 5.202 11.415 11.415 11.415 6.358 0 11.415-5.202 11.415-11.415v-375.818c0-2.167 1.445-3.179 2.312-3.468 0.867-0.433 2.601-0.722 4.19 0.867l232.484 232.484c1.445 1.445 1.445 3.901 0 5.491l-232.34 232.195c-1.589 1.589-3.323 1.156-4.19 0.867-0.867-0.433-2.312-1.3-2.312-3.468v-51.438c0-6.358-5.202-11.415-11.415-11.415-6.358 0-11.415 5.202-11.415 11.415v51.438c0 10.837 6.502 20.662 16.472 24.708 10.114 4.19 21.529 1.878 29.187-5.78l232.484-232.484c10.403-10.403 10.403-27.453 0-37.856l-232.629-232.484c-5.202-5.202-11.993-7.802-18.928-7.802zM656.996 188.857c-3.468 0-6.936 0.722-10.259 2.023-10.114 4.19-16.472 13.871-16.472 24.708 0 6.358 5.202 11.415 11.415 11.415 6.358 0 11.415-5.202 11.415-11.415 0-2.167 1.445-3.179 2.312-3.468 0.867-0.433 2.601-0.722 4.19 0.867l232.484 232.484c1.445 1.445 1.445 3.901 0 5.346l-232.34 232.34c-1.589 1.589-3.323 1.156-4.19 0.867-0.867-0.433-2.312-1.3-2.312-3.468 0-6.358-5.202-11.415-11.415-11.415-6.358 0-11.415 5.202-11.415 11.415 0 10.837 6.502 20.662 16.472 24.708 10.114 4.19 21.529 1.878 29.187-5.78l232.484-232.484c5.057-5.057 7.802-11.848 7.802-18.928s-2.745-13.871-7.802-18.928l-232.629-232.484c-5.057-5.202-11.848-7.802-18.928-7.802zM483.897 322.222h-138.132c-6.358 0-11.415 5.202-11.415 11.415 0 6.358 5.202 11.415 11.415 11.415h138.132c6.358 0 11.415-5.202 11.415-11.415 0.144-6.213-5.057-11.415-11.415-11.415zM483.897 402.413h-277.999c-6.358 0-11.415 5.202-11.415 11.415s5.202 11.415 11.415 11.415h277.999c6.358 0 11.415-5.202 11.415-11.415s-5.057-11.415-11.415-11.415zM161.54 402.413h-150.125c-6.358 0-11.415 5.202-11.415 11.415s5.202 11.415 11.415 11.415h150.125c6.358 0 11.415-5.202 11.415-11.415s-5.057-11.415-11.415-11.415zM483.897 477.548h-322.357c-6.358 0-11.415 5.202-11.415 11.415s5.202 11.415 11.415 11.415h322.357c6.358 0 11.415-5.202 11.415-11.415s-5.057-11.415-11.415-11.415zM483.897 550.805h-109.234c-6.358 0-11.415 5.202-11.415 11.415 0 6.358 5.202 11.415 11.415 11.415h109.234c6.358 0 11.415-5.202 11.415-11.415 0.144-6.213-5.057-11.415-11.415-11.415zM306.608 322.222h-15.316c-6.358 0-11.415 5.202-11.415 11.415 0 6.358 5.202 11.415 11.415 11.415h15.316c6.358 0 11.415-5.202 11.415-11.415s-5.057-11.415-11.415-11.415zM339.84 550.805h-12.86c-6.358 0-11.415 5.202-11.415 11.415 0 6.358 5.202 11.415 11.415 11.415h12.86c6.358 0 11.415-5.202 11.415-11.415s-5.057-11.415-11.415-11.415zM880.233 283.209c0-5.985-4.852-10.837-10.837-10.837s-10.837 4.852-10.837 10.837c0 5.985 4.852 10.837 10.837 10.837s10.837-4.852 10.837-10.837zM835.296 250.266c0-14.125-11.45-25.575-25.575-25.575s-25.575 11.45-25.575 25.575c0 14.125 11.45 25.575 25.575 25.575s25.575-11.45 25.575-25.575zM1023.856 448.072c0-9.975-8.086-18.061-18.061-18.061s-18.061 8.086-18.061 18.061c0 9.975 8.086 18.061 18.061 18.061s18.061-8.086 18.061-18.061zM914.332 543.725c0-7.82-6.34-14.16-14.16-14.16s-14.16 6.34-14.16 14.16c0 7.82 6.34 14.16 14.16 14.16s14.16-6.34 14.16-14.16zM863.905 616.259c0-12.928-10.48-23.407-23.407-23.407s-23.407 10.48-23.407 23.407c0 12.928 10.48 23.407 23.407 23.407s23.407-10.48 23.407-23.407zM936.873 592.707c0-5.267-4.27-9.536-9.536-9.536s-9.536 4.27-9.536 9.536c0 5.267 4.27 9.536 9.536 9.536s9.536-4.27 9.536-9.536zM977.474 417.151c0-5.267-4.27-9.536-9.536-9.536s-9.536 4.27-9.536 9.536c0 5.267 4.27 9.536 9.536 9.536s9.536-4.27 9.536-9.536z" />
<glyph unicode="&#xe933;" glyph-name="theme-brush" d="M1021.255 702.952c-5.057 19.795-16.761 33.955-32.944 39.879-32.221 11.704-69.789-13.438-85.827-57.362-0.289-0.578-0.433-1.156-0.578-1.878 0-0.144-2.167-10.692-5.635-26.008-2.023-8.814-4.19-19.217-6.358-30.343-3.901-19.362-8.38-41.324-13.438-59.096-7.658-26.008-13.149-29.62-13.293-29.765-7.513-3.468-18.061-5.202-29.187-6.936-25.575-4.046-57.362-9.247-69.066-41.18l-26.153-71.811c0-0.144-0.144-0.289-0.144-0.433s-0.144-0.289-0.144-0.289c0-0.144-5.202-17.339-17.050-39.157-17.772-32.51-50.138-74.557-103.31-90.451-5.202-1.589-8.814-6.358-8.958-11.704-0.144-5.491 3.179-10.403 8.236-12.137l239.564-87.127c1.445-0.578 2.89-0.722 4.335-0.722 2.745 0 5.491 0.867 7.802 2.745 1.878 1.445 46.67 37.423 83.515 111.98 6.791 13.727 13.004 28.176 18.35 43.058l26.153 71.811c11.704 31.932-9.392 56.351-26.442 75.857-7.369 8.525-14.449 16.616-17.772 23.985-0.144 0.289-2.023 6.502 8.814 31.354 7.369 16.905 18.206 36.556 27.598 53.895 5.346 9.825 10.548 19.217 14.593 27.309 7.080 14.016 12.282 23.552 12.426 23.552 0.289 0.578 0.578 1.156 0.722 1.734 7.369 20.084 8.814 41.18 4.19 59.241zM951.611 354.587l-184.803 67.332 11.126 30.487 184.803-67.332-11.126-30.487zM714.792 255.612c22.251 14.16 40.457 29.909 54.328 44.358-9.825-20.084-20.229-38.145-30.776-53.028l-23.552 8.669zM858.704 203.306l-105.622 38.434c19.073 27.598 37.423 64.587 52.016 104.466 0 0 0 0 0 0.144 0.144 0.289 0.144 0.578 0.289 0.867 0 0.144 0.144 0.433 0.144 0.578 0 0.289 0 0.578 0 0.722 0 0.289 0 0.433 0 0.722s0 0.433-0.144 0.722c0 0.289 0 0.578-0.144 0.722 0 0.289-0.144 0.433-0.289 0.722s-0.144 0.433-0.289 0.722c-0.144 0.289-0.289 0.433-0.433 0.722-0.144 0.144-0.289 0.433-0.289 0.578-0.144 0.144-0.289 0.289-0.433 0.578-0.144 0.144-0.289 0.433-0.578 0.578-0.144 0.144-0.289 0.289-0.433 0.433-0.289 0.144-0.433 0.433-0.722 0.578 0 0 0 0 0 0-0.144 0.144-0.433 0.144-0.578 0.289s-0.433 0.144-0.578 0.289c0 0 0 0-0.144 0-0.289 0.144-0.578 0.144-0.867 0.144-0.144 0-0.433 0.144-0.578 0.144-0.289 0-0.578 0-0.722 0-0.289 0-0.433 0-0.722 0s-0.433 0-0.722-0.144c-0.289 0-0.433 0-0.722-0.144-0.289 0-0.578-0.144-0.722-0.289s-0.433-0.144-0.578-0.289c-0.289-0.144-0.433-0.289-0.722-0.433-0.144-0.144-0.289-0.144-0.578-0.289-0.144-0.144-0.433-0.289-0.578-0.433s-0.433-0.289-0.578-0.433c-0.144-0.144-0.289-0.289-0.433-0.433-0.144-0.289-0.433-0.433-0.578-0.722 0 0 0 0 0 0-0.289-0.578-32.221-54.473-94.93-90.306l-39.735 14.449c42.914 22.685 70.511 59.819 86.838 89.728 6.791 12.571 11.704 23.552 14.738 31.499l184.514-67.188c-3.901-9.825-8.236-19.506-12.86-28.753-27.020-55.051-58.952-87.705-71.234-98.976zM993.802 653.248c-1.445-2.745-6.069-11.27-12.282-23.407-3.901-7.802-8.958-16.905-14.16-26.586-28.609-52.305-46.526-87.994-37.278-107.934 4.913-10.692 13.438-20.373 21.673-29.909 17.628-20.373 27.887-33.955 21.818-50.716 0 0 0 0 0 0l-5.635-15.316-184.803 67.332 5.635 15.316c6.069 16.761 22.685 20.662 49.271 24.852 12.426 2.023 25.141 4.046 35.833 8.958 19.94 9.247 29.042 48.26 40.891 106.634 2.167 10.837 4.19 21.096 6.213 29.476 3.034 13.149 5.057 22.829 5.635 25.864 10.981 29.042 35.111 47.971 53.172 41.469 10.981-4.046 15.46-15.749 17.194-22.396 3.179-13.149 2.167-28.609-3.179-43.636zM675.779 202.728c0 6.936-5.635 12.571-12.571 12.571h-650.638c-6.936 0-12.571-5.635-12.571-12.571s5.635-12.571 12.571-12.571h650.638c6.936 0 12.571 5.635 12.571 12.571zM175.989 232.204h345.331c6.936 0 12.571 5.635 12.571 12.571s-5.635 12.571-12.571 12.571h-345.331c-6.936 0-12.571-5.635-12.571-12.571 0-6.791 5.635-12.571 12.571-12.571zM790.504 175.564h-404.861c-6.936 0-12.571-5.635-12.571-12.571s5.635-12.571 12.571-12.571h404.716c6.936 0 12.571 5.635 12.571 12.571 0.144 6.936-5.491 12.571-12.426 12.571zM62.709 232.204h56.64c6.936 0 12.571 5.635 12.571 12.571s-5.635 12.571-12.571 12.571h-56.64c-6.936 0-12.571-5.635-12.571-12.571 0-6.791 5.635-12.571 12.571-12.571zM330.882 175.564h-33.522c-6.936 0-12.571-5.635-12.571-12.571s5.635-12.571 12.571-12.571h33.522c6.936 0 12.571 5.635 12.571 12.571 0.144 6.936-5.491 12.571-12.571 12.571zM229.161 175.564h-19.651c-6.936 0-12.571-5.635-12.571-12.571s5.635-12.571 12.571-12.571h19.651c6.936 0 12.571 5.635 12.571 12.571 0.144 6.936-5.635 12.571-12.571 12.571z" />
<glyph unicode="&#xe934;" glyph-name="caret-up" d="M970.916 99.361h-123.633l-335.283 381.517-335.283-381.517h-123.633l458.916 522.274z" />
<glyph unicode="&#xe935;" glyph-name="caret-right" horiz-adv-x="922" d="M226.082-64v111.345l343.595 301.957-343.595 301.957v111.345l470.053-413.301z" />
</font>
</defs>
</svg>
